<?xml version="1.0" standalone="no"?>
<!DOCTYPE svg PUBLIC "-//W3C//DTD SVG 20010904//EN"
 "http://www.w3.org/TR/2001/REC-SVG-20010904/DTD/svg10.dtd">
<svg version="1.0" xmlns="http://www.w3.org/2000/svg"
 width="1314.000000pt" height="798.000000pt" viewBox="0 0 1314.000000 798.000000"
 preserveAspectRatio="xMidYMid meet">

<g transform="translate(0.000000,798.000000) scale(0.100000,-0.100000)"
fill="#000000" stroke="none">
<path d="M593 7770 c-41 -25 -52 -46 -60 -120 l-6 -60 -33 0 c-33 0 -34 -1
-34 -40 0 -39 1 -40 35 -40 l35 0 0 -215 0 -215 45 0 45 0 0 215 0 215 50 0
50 0 0 40 0 40 -51 0 -52 0 6 47 c6 56 25 73 83 73 39 0 42 2 47 33 2 18 0 35
-7 39 -23 16 -120 8 -153 -12z"/>
<path d="M1419 7498 c-56 -95 -110 -187 -120 -204 -11 -17 -19 -34 -19 -38 0
-3 50 -6 110 -6 l110 0 0 -1329 0 -1330 -42 -4 -43 -4 43 -1 42 -2 0 -1125 0
-1124 -142 -4 -143 -3 143 -2 c106 -1 142 -5 142 -15 0 -7 -21 -43 -46 -80
-25 -38 -43 -71 -41 -73 3 -3 22 23 43 58 l39 63 5 -610 5 -610 5293 -3 5292
-2 0 -111 c0 -61 4 -109 8 -107 28 11 412 242 412 247 0 3 -93 61 -208 128
l-207 122 -3 -109 -3 -110 -1809 0 -1810 0 -3 218 -2 217 -3 -217 -2 -218
-965 0 -965 0 -3 218 -2 217 -3 -217 -2 -218 -640 0 -640 0 0 1624 0 1624 103
35 c182 63 285 91 489 131 191 38 278 47 488 49 l195 2 5 -230 6 -230 2 229 2
228 24 -6 c14 -3 440 -134 948 -291 508 -157 931 -288 940 -291 16 -5 18 -27
21 -237 l2 -232 3 235 2 236 -977 302 -978 302 -160 0 c-142 0 -222 -6 -370
-26 -161 -22 -456 -94 -625 -152 -482 -166 -929 -393 -1309 -665 -288 -207
-683 -539 -1038 -875 -154 -146 -162 -151 -148 -112 l15 41 -26 -3 c-23 -3
-30 -14 -60 -92 -18 -49 -37 -93 -43 -99 -11 -11 -11 -11 -56 116 -25 71 -30
77 -55 77 l-28 0 44 -116 c24 -64 44 -119 44 -122 0 -4 -12 -21 -28 -37 -15
-17 -60 -67 -101 -113 l-73 -82 -474 0 c-375 0 -474 3 -474 13 0 7 15 35 33
62 58 87 69 105 64 105 -2 0 -24 -29 -47 -65 -23 -36 -44 -65 -46 -65 -2 0 -4
495 -4 1100 l0 1099 128 4 127 3 -127 2 -128 2 0 1330 0 1330 111 0 c87 0 110
3 107 13 -5 22 -232 406 -240 407 -4 0 -53 -78 -109 -172z m3811 -3235 l0 -87
-65 64 -65 65 57 22 c32 12 61 22 66 22 4 1 7 -38 7 -86z m0 -795 c0 -379 -3
-688 -7 -688 -4 0 -44 35 -88 77 l-80 78 88 -90 87 -90 0 -338 c0 -185 -3
-337 -8 -337 -16 0 -1444 1438 -1438 1448 9 14 303 235 350 263 l38 22 141
-139 142 -139 -138 141 -139 141 28 22 c27 21 223 140 344 209 l55 31 180
-177 180 -177 -173 176 c-135 136 -170 178 -160 186 23 19 178 94 318 154
l135 59 72 -72 73 -72 0 -688z m-728 -685 l728 -728 0 -337 c0 -186 -3 -338
-8 -338 -4 0 -241 234 -527 520 -502 502 -519 521 -506 542 8 13 21 34 29 48
14 25 14 25 -4 4 -11 -11 -26 -30 -34 -42 -15 -22 -23 -14 -400 363 l-385 385
30 29 c51 51 329 280 340 281 5 0 337 -327 737 -727z m-723 23 l384 -384 -32
-46 -32 -46 -267 0 -267 0 -95 93 -95 92 90 -92 90 -93 -519 0 c-492 0 -518 1
-505 18 8 9 49 57 93 105 88 98 96 98 96 5 0 -55 1 -58 25 -58 24 0 25 3 25
54 0 81 51 209 105 265 39 40 42 41 38 17 -3 -15 2 -37 12 -52 10 -16 13 -29
8 -33 -20 -12 -33 -51 -27 -76 15 -61 106 -85 172 -45 36 22 39 32 17 50 -12
10 -20 8 -41 -9 -33 -26 -66 -27 -88 -2 -28 30 3 71 53 71 14 0 21 6 21 20 0
15 -7 20 -24 20 -47 0 -74 53 -40 81 12 10 25 10 57 2 40 -11 67 -4 67 17 0
14 -70 32 -107 28 l-35 -4 74 72 c113 110 342 314 353 314 6 0 183 -173 394
-384z m923 -923 l528 -528 0 -122 0 -123 -223 0 -222 0 -605 605 -605 605 258
0 c204 0 257 -3 251 -12 -4 -7 -29 -46 -56 -85 -27 -40 -45 -73 -41 -73 4 0
46 59 93 130 47 71 87 130 90 130 3 0 242 -237 532 -527z m-2323 305 c-391
-462 -566 -682 -720 -908 -96 -140 -102 -150 -95 -150 3 0 37 47 76 105 40 58
77 108 82 111 6 4 65 -48 132 -115 l121 -121 -206 0 c-179 0 -208 2 -213 16
-3 9 -6 281 -6 605 l0 589 470 0 471 0 -112 -132z m1791 -473 l605 -605 -345
0 -345 0 -600 598 -600 597 595 -597 595 -598 -345 0 -345 0 -512 512 c-282
282 -513 517 -513 521 0 4 33 46 73 92 l72 85 530 0 530 0 605 -605z m-1305
-95 l510 -510 -345 0 -345 0 -324 324 c-232 233 -321 328 -315 337 14 25 297
359 303 359 3 0 236 -229 516 -510z m-510 -190 l320 -320 -345 0 -345 0 -128
128 -127 128 117 155 c137 180 176 229 183 229 3 0 149 -144 325 -320z"/>
<path d="M4690 3523 c-6 -15 -40 -102 -75 -193 -36 -91 -65 -169 -65 -174 0
-4 12 -6 27 -4 23 3 30 12 47 61 l21 57 82 0 81 0 24 -60 c20 -53 26 -60 50
-60 16 0 28 4 28 9 0 4 -35 93 -78 197 -72 175 -80 189 -105 192 -22 3 -29 -2
-37 -25z m69 -121 l30 -82 -59 0 c-33 0 -60 3 -60 7 0 10 54 162 57 160 1 -2
15 -40 32 -85z"/>
<path d="M4940 3405 l0 -25 130 0 130 0 0 25 0 25 -130 0 -130 0 0 -25z"/>
<path d="M4940 3285 l0 -25 130 0 130 0 0 25 0 25 -130 0 -130 0 0 -25z"/>
<path d="M3165 2665 c-52 -51 -18 -155 50 -155 28 0 65 31 65 55 0 22 -23 18
-38 -6 -18 -28 -54 -21 -66 14 -20 57 30 113 64 72 14 -17 40 -20 40 -5 0 19
-40 50 -65 50 -14 0 -37 -11 -50 -25z"/>
<path d="M832 7360 c-40 -25 -62 -73 -62 -137 0 -113 106 -179 198 -123 41 25
63 67 41 81 -19 12 -39 11 -39 -1 0 -21 -41 -50 -70 -50 -50 0 -80 38 -80 100
0 41 5 56 25 75 33 34 78 33 110 -1 28 -30 66 -26 58 5 -16 62 -119 90 -181
51z"/>
<path d="M643 5120 c-41 -25 -52 -46 -60 -120 l-6 -60 -33 0 c-33 0 -34 -1
-34 -40 0 -39 1 -40 35 -40 l35 0 0 -215 0 -215 45 0 45 0 0 215 0 215 50 0
50 0 0 40 0 40 -51 0 -52 0 6 47 c6 56 25 73 83 73 39 0 42 2 47 33 2 18 0 35
-7 39 -23 16 -120 8 -153 -12z"/>
<path d="M843 4908 c10 -103 15 -120 41 -116 23 3 34 45 35 136 l1 52 -41 0
-42 0 6 -72z"/>
<path d="M1042 4710 c-40 -25 -62 -73 -62 -137 0 -113 106 -179 198 -123 41
25 63 67 41 81 -19 12 -39 11 -39 -1 0 -21 -41 -50 -70 -50 -50 0 -80 38 -80
100 0 41 5 56 25 75 33 34 78 33 110 -1 28 -30 66 -26 58 5 -16 62 -119 90
-181 51z"/>
<path d="M2088 4583 c56 -2 148 -2 205 0 56 1 10 3 -103 3 -113 0 -159 -2
-102 -3z"/>
<path d="M2688 4583 c56 -2 148 -2 205 0 56 1 10 3 -103 3 -113 0 -159 -2
-102 -3z"/>
<path d="M3278 4583 c56 -2 148 -2 205 0 56 1 10 3 -103 3 -113 0 -159 -2
-102 -3z"/>
<path d="M3878 4583 c57 -2 147 -2 200 0 53 1 7 3 -103 3 -110 0 -154 -2 -97
-3z"/>
<path d="M4468 4583 c56 -2 148 -2 205 0 56 1 10 3 -103 3 -113 0 -159 -2
-102 -3z"/>
<path d="M5068 4583 c57 -2 147 -2 200 0 53 1 7 3 -103 3 -110 0 -154 -2 -97
-3z"/>
<path d="M5658 4583 c56 -2 148 -2 205 0 56 1 10 3 -103 3 -113 0 -159 -2
-102 -3z"/>
<path d="M6524 3720 c0 -113 2 -159 3 -102 2 56 2 148 0 205 -1 56 -3 10 -3
-103z"/>
<path d="M5605 3525 c-16 -15 -25 -36 -25 -55 0 -23 -4 -30 -20 -30 -15 0 -20
-7 -20 -25 0 -18 5 -25 20 -25 19 0 20 -7 20 -120 l0 -120 25 0 25 0 0 120 0
120 30 0 c25 0 30 4 30 25 0 21 -5 25 -30 25 -22 0 -30 5 -30 18 0 24 19 42
46 42 12 0 24 6 27 13 2 6 8 -14 12 -45 6 -46 11 -58 25 -58 18 0 30 41 30
108 l0 32 -70 0 c-62 0 -74 -3 -95 -25z"/>
<path d="M5308 3434 c-39 -21 -58 -64 -58 -129 0 -100 44 -155 123 -155 19 0
46 9 60 20 14 11 27 20 30 20 3 0 7 -9 10 -20 3 -13 14 -20 29 -20 l24 0 -18
72 c-18 70 -18 75 0 145 l18 73 -24 0 c-15 0 -26 -7 -29 -20 -5 -19 -6 -19
-35 5 -34 29 -87 33 -130 9z m97 -30 c41 -16 59 -118 30 -174 -28 -55 -97 -51
-121 6 -41 98 13 198 91 168z"/>
<path d="M6019 3421 c-33 -33 -37 -65 -13 -100 10 -14 13 -26 7 -30 -20 -12
-33 -51 -27 -76 15 -61 106 -85 172 -45 36 22 39 32 17 50 -12 10 -20 8 -41
-9 -33 -26 -66 -27 -88 -2 -28 30 3 71 53 71 14 0 21 6 21 20 0 15 -7 20 -24
20 -47 0 -74 53 -40 81 12 10 25 10 57 2 29 -8 46 -8 54 -1 20 16 16 25 -18
37 -57 20 -98 14 -130 -18z"/>
<path d="M5835 3305 c-52 -51 -18 -155 50 -155 28 0 65 31 65 55 0 22 -23 18
-38 -6 -18 -28 -54 -21 -66 14 -20 57 30 113 64 72 14 -17 40 -20 40 -5 0 19
-40 50 -65 50 -14 0 -37 -11 -50 -25z"/>
<path d="M6235 3305 c-52 -51 -18 -155 50 -155 28 0 65 31 65 55 0 22 -23 18
-38 -6 -18 -28 -54 -21 -66 14 -20 57 30 113 64 72 14 -17 40 -20 40 -5 0 19
-40 50 -65 50 -14 0 -37 -11 -50 -25z"/>
<path d="M8464 3130 c0 -113 2 -159 3 -102 2 56 2 148 0 205 -1 56 -3 10 -3
-103z"/>
<path d="M6524 3125 c0 -110 2 -156 3 -103 2 53 2 143 0 200 -1 57 -3 13 -3
-97z"/>
<path d="M6524 2530 c0 -113 2 -159 3 -102 2 56 2 148 0 205 -1 56 -3 10 -3
-103z"/>
<path d="M8464 2530 c0 -113 2 -159 3 -102 2 56 2 148 0 205 -1 56 -3 10 -3
-103z"/>
<path d="M6524 1940 c0 -113 2 -159 3 -102 2 56 2 148 0 205 -1 56 -3 10 -3
-103z"/>
<path d="M8464 1940 c0 -113 2 -159 3 -102 2 56 2 148 0 205 -1 56 -3 10 -3
-103z"/>
<path d="M4990 762 c-81 -40 -106 -142 -50 -205 l29 -34 -29 -21 c-94 -70 -39
-229 85 -248 84 -12 187 16 225 61 12 14 10 19 -15 39 l-29 23 -37 -24 c-71
-47 -149 -38 -177 19 -28 59 27 118 109 118 26 0 29 3 29 34 0 32 -1 34 -47
39 -35 4 -53 12 -70 32 -30 34 -29 60 2 90 29 30 73 32 131 6 l41 -19 29 24
29 24 -24 19 c-55 42 -170 54 -231 23z"/>
<path d="M6190 742 c-81 -40 -106 -142 -50 -205 l29 -34 -29 -21 c-94 -70 -39
-229 85 -248 84 -12 187 16 225 61 12 14 10 19 -15 39 l-29 23 -37 -24 c-71
-47 -149 -38 -177 19 -28 59 27 118 109 118 26 0 29 3 29 34 0 32 -1 34 -47
39 -35 4 -53 12 -70 32 -30 34 -29 60 2 90 29 30 73 32 131 6 l41 -19 29 24
29 24 -24 19 c-55 42 -170 54 -231 23z"/>
<path d="M12310 742 c-81 -40 -106 -142 -50 -205 l29 -34 -29 -21 c-94 -70
-39 -229 85 -248 84 -12 187 16 225 61 12 14 10 19 -15 39 l-29 23 -37 -24
c-71 -47 -149 -38 -177 19 -28 59 27 118 109 118 26 0 29 3 29 34 0 32 -1 34
-47 39 -35 4 -53 12 -70 32 -30 34 -29 60 2 90 29 30 73 32 131 6 l41 -19 29
24 29 24 -24 19 c-55 42 -170 54 -231 23z"/>
<path d="M8090 702 c-81 -40 -106 -142 -50 -205 l29 -34 -29 -21 c-94 -70 -39
-229 85 -248 84 -12 187 16 225 61 12 14 10 19 -15 39 l-29 23 -37 -24 c-71
-47 -149 -38 -177 19 -28 59 27 118 109 118 26 0 29 3 29 34 0 32 -1 34 -47
39 -35 4 -53 12 -70 32 -30 34 -29 60 2 90 29 30 73 32 131 6 l41 -19 29 24
29 24 -24 19 c-55 42 -170 54 -231 23z"/>
<path d="M5372 540 c-40 -25 -62 -73 -62 -137 0 -113 106 -179 198 -123 41 25
63 67 41 81 -19 12 -39 11 -39 -1 0 -21 -41 -50 -70 -50 -50 0 -80 38 -80 100
0 41 5 56 25 75 33 34 78 33 110 -1 28 -30 66 -26 58 5 -16 62 -119 90 -181
51z"/>
<path d="M6562 520 c-40 -25 -62 -73 -62 -137 0 -113 106 -179 198 -123 41 25
63 67 41 81 -19 12 -39 11 -39 -1 0 -21 -41 -50 -70 -50 -50 0 -80 38 -80 100
0 41 5 56 25 75 33 34 78 33 110 -1 28 -30 66 -26 58 5 -16 62 -119 90 -181
51z"/>
<path d="M6855 531 c-87 -38 -107 -183 -36 -255 28 -28 38 -31 91 -31 53 0 63
3 91 31 58 58 58 169 1 227 -24 23 -41 31 -79 33 -26 2 -57 0 -68 -5z m110
-66 c20 -19 25 -34 25 -75 0 -62 -30 -100 -80 -100 -50 0 -80 38 -80 100 0 62
30 100 80 100 19 0 40 -9 55 -25z"/>
<path d="M8472 480 c-40 -25 -62 -73 -62 -137 0 -113 106 -179 198 -123 41 25
63 67 41 81 -19 12 -39 11 -39 -1 0 -21 -41 -50 -70 -50 -50 0 -80 38 -80 100
0 41 5 56 25 75 33 34 78 33 110 -1 28 -30 66 -26 58 5 -16 62 -119 90 -181
51z"/>
<path d="M8766 479 c-21 -17 -26 -18 -26 -5 0 10 -9 16 -25 16 l-25 0 0 -145
0 -145 25 0 c25 0 25 2 25 78 0 126 21 172 79 172 38 0 51 -36 51 -147 l0
-103 25 0 25 0 0 105 c0 92 3 108 20 125 24 24 63 26 84 4 13 -12 16 -39 16
-125 l0 -109 25 0 25 0 0 125 c0 120 -1 127 -25 150 -36 37 -113 30 -138 -12
-7 -11 -14 -9 -38 12 -38 31 -86 33 -123 4z"/>
</g>
</svg>
