<?xml version="1.0" standalone="no"?>
<!DOCTYPE svg PUBLIC "-//W3C//DTD SVG 20010904//EN"
 "http://www.w3.org/TR/2001/REC-SVG-20010904/DTD/svg10.dtd">
<svg version="1.0" xmlns="http://www.w3.org/2000/svg"
 width="5739.000000pt" height="4159.000000pt" viewBox="0 0 5739.000000 4159.000000"
 preserveAspectRatio="xMidYMid meet">

<g transform="translate(0.000000,4159.000000) scale(0.100000,-0.100000)"
fill="#000000" stroke="none">
<path d="M18570 40405 l0 -105 80 0 80 0 0 105 0 105 -80 0 -80 0 0 -105z"/>
<path d="M17190 39801 l0 -661 233 0 c322 0 480 27 612 104 107 63 192 186
232 336 24 90 24 347 0 442 -54 218 -183 344 -414 405 -91 24 -117 26 -380 31
l-283 4 0 -661z m597 486 c124 -36 203 -94 250 -184 49 -94 58 -143 58 -308 0
-131 -3 -158 -23 -218 -57 -163 -162 -245 -353 -276 -35 -6 -130 -11 -211 -11
l-148 0 0 511 0 511 188 -5 c122 -3 205 -10 239 -20z"/>
<path d="M26590 39795 l0 -655 85 0 85 0 2 570 3 570 167 -443 166 -442 90 -3
89 -3 163 433 c89 238 166 440 171 448 5 8 9 -242 9 -557 l0 -573 85 0 85 0 0
655 0 655 -133 0 -132 0 -165 -436 c-90 -239 -167 -437 -170 -439 -4 -2 -81
194 -171 435 l-164 440 -132 0 -133 0 0 -655z"/>
<path d="M33240 40270 l0 -140 -60 0 -60 0 0 -65 0 -65 60 0 60 0 0 -318 c0
-396 10 -442 104 -496 58 -34 129 -46 266 -46 l120 0 0 70 0 70 -117 0 c-141
0 -181 14 -200 70 -8 24 -12 132 -12 343 l-1 307 165 0 165 0 0 65 0 65 -165
0 -164 0 -3 138 -3 137 -77 3 -78 3 0 -141z"/>
<path d="M41877 40404 c-4 -4 -7 -67 -7 -141 l0 -133 -60 0 -60 0 0 -65 0 -65
60 0 60 0 0 -277 c0 -303 9 -394 43 -463 43 -87 105 -111 310 -117 l147 -5 0
70 0 70 -135 4 c-132 3 -135 4 -162 31 l-28 27 -3 330 -3 330 165 0 166 0 0
65 0 65 -165 0 -164 0 -3 138 -3 137 -75 3 c-42 1 -79 0 -83 -4z"/>
<path d="M19300 40139 c-30 -4 -91 -18 -135 -31 l-80 -23 -3 -77 -3 -77 55 25
c121 55 307 69 401 30 82 -34 135 -108 135 -186 l0 -40 -147 0 c-242 0 -348
-27 -432 -109 -57 -56 -83 -123 -85 -220 -2 -137 50 -228 161 -283 64 -31 73
-33 173 -32 136 0 199 23 276 100 l54 54 0 -65 0 -65 86 0 87 0 -6 333 c-6
355 -11 398 -60 493 -72 141 -254 207 -477 173z m368 -587 c-7 -128 -68 -231
-164 -277 -49 -24 -159 -31 -211 -14 -87 28 -123 80 -123 176 0 146 83 189
369 192 l134 1 -5 -78z"/>
<path d="M20423 40140 c-119 -25 -213 -103 -268 -223 -41 -88 -55 -162 -55
-281 1 -175 48 -307 146 -402 71 -70 141 -97 254 -98 123 -1 179 21 259 101
l64 64 -6 -83 c-10 -127 -30 -182 -87 -238 -57 -58 -119 -80 -226 -80 -87 0
-161 14 -231 46 l-53 23 0 -79 0 -79 53 -16 c89 -27 188 -38 287 -32 250 13
374 129 410 382 5 39 10 274 10 523 l0 452 -80 0 -80 0 0 -69 0 -69 -62 62
c-45 44 -77 67 -113 79 -61 21 -166 29 -222 17z m203 -145 c136 -40 212 -219
184 -436 -27 -218 -161 -324 -348 -277 -35 9 -60 25 -99 63 -70 70 -93 144
-93 295 0 151 23 225 94 295 72 72 156 92 262 60z"/>
<path d="M21687 40139 c-64 -15 -133 -56 -176 -105 l-41 -47 0 72 0 71 -85 0
-85 0 0 -495 0 -495 84 0 85 0 3 328 3 327 26 55 c30 64 72 110 125 135 53 25
158 31 212 12 l42 -15 0 78 c0 62 -3 79 -16 84 -22 9 -132 6 -177 -5z"/>
<path d="M22285 40140 c-33 -5 -97 -21 -142 -35 l-83 -26 0 -73 0 -74 61 25
c199 80 406 66 488 -34 28 -34 51 -99 51 -142 0 -20 -5 -21 -155 -21 -247 0
-362 -33 -444 -126 -48 -55 -71 -122 -71 -210 0 -128 59 -228 168 -281 52 -26
67 -28 167 -28 100 0 116 3 173 29 42 20 79 47 112 83 l50 55 0 -71 0 -71 80
0 80 0 0 318 c0 344 -7 409 -54 498 -31 60 -50 83 -98 118 -77 57 -248 86
-383 66z m375 -550 c0 -102 -44 -215 -104 -268 -59 -52 -95 -65 -181 -69 -69
-4 -86 -1 -125 19 -130 67 -134 261 -6 322 51 24 127 34 279 35 l137 1 0 -40z"/>
<path d="M23541 40140 c-70 -15 -125 -47 -180 -105 l-51 -54 0 75 0 74 -80 0
-80 0 0 -495 0 -495 80 0 80 0 0 309 c0 284 2 314 21 376 68 220 373 256 434
51 12 -40 15 -120 15 -393 l0 -343 84 0 85 0 3 333 c3 322 4 333 26 382 13 28
35 63 50 78 89 94 264 102 336 16 51 -60 56 -103 56 -471 l0 -338 85 0 85 0 0
278 c-1 313 -10 450 -36 522 -28 78 -81 140 -149 175 -51 26 -69 30 -139 30
-137 -1 -241 -53 -310 -156 l-34 -51 -22 41 c-32 64 -85 116 -140 140 -58 25
-155 34 -219 21z"/>
<path d="M25144 40139 c-33 -5 -96 -19 -140 -31 l-79 -23 -3 -77 -3 -77 55 25
c135 62 318 70 422 19 70 -34 106 -85 112 -159 l4 -54 -188 -4 c-161 -4 -199
-8 -254 -27 -89 -30 -149 -76 -185 -142 -28 -51 -30 -60 -30 -164 0 -94 3
-116 22 -151 51 -95 142 -151 262 -161 136 -11 258 31 332 116 l39 44 0 -67 0
-66 85 0 85 0 0 283 c0 303 -9 418 -41 502 -62 167 -251 249 -495 214z m364
-591 c-9 -181 -123 -298 -290 -298 -130 0 -208 69 -208 185 0 64 16 102 60
138 26 22 50 30 155 51 11 2 80 4 154 5 l134 1 -5 -82z"/>
<path d="M28403 40135 c-162 -35 -285 -166 -322 -343 -16 -76 -13 -265 4 -340
61 -256 285 -388 556 -326 216 49 346 270 325 554 -11 159 -55 268 -141 349
-63 60 -117 88 -204 107 -81 17 -137 17 -218 -1z m241 -159 c82 -48 129 -133
148 -265 22 -158 -23 -325 -108 -400 -78 -68 -190 -81 -285 -33 -107 54 -159
167 -159 346 0 200 62 323 188 372 58 22 161 13 216 -20z"/>
<path d="M29622 40139 c-64 -12 -139 -58 -188 -114 l-44 -50 0 78 0 77 -80 0
-80 0 0 -495 0 -495 79 0 79 0 4 323 c4 306 5 325 26 379 55 138 219 208 342
146 37 -19 51 -34 75 -83 l30 -60 3 -352 3 -353 80 0 79 0 0 303 c0 335 6 384
60 462 37 53 82 82 152 97 79 16 142 4 188 -38 70 -63 73 -84 78 -476 l4 -348
79 0 79 0 0 323 c0 177 -5 351 -11 387 -21 134 -84 226 -184 272 -76 34 -199
32 -280 -6 -63 -29 -132 -88 -167 -145 l-21 -34 -21 40 c-71 136 -202 194
-364 162z"/>
<path d="M31300 40139 c-134 -23 -264 -120 -321 -242 -76 -164 -77 -383 -2
-537 34 -70 123 -159 193 -193 147 -72 353 -74 557 -6 l63 21 0 75 c0 68 -2
74 -17 68 -136 -58 -188 -69 -318 -70 -120 0 -134 2 -185 26 -102 48 -158 131
-174 257 l-7 52 371 0 370 0 0 88 c0 324 -216 512 -530 461z m226 -157 c47
-24 100 -81 120 -127 7 -17 16 -55 20 -83 l7 -52 -290 0 -290 0 8 44 c30 160
147 251 314 243 46 -3 84 -11 111 -25z"/>
<path d="M32491 40140 c-68 -15 -128 -48 -182 -102 l-49 -49 0 71 0 70 -85 0
-85 0 0 -495 0 -495 85 0 85 0 0 318 c0 376 3 396 80 473 59 59 132 84 222 76
77 -7 128 -40 159 -104 24 -47 24 -52 27 -405 l3 -358 85 0 86 0 -4 358 c-4
333 -6 361 -26 423 -31 93 -78 151 -154 188 -70 34 -171 47 -247 31z"/>
<path d="M34213 40135 c-163 -35 -277 -154 -319 -332 -22 -90 -22 -268 -1
-350 56 -217 215 -343 432 -343 125 0 222 37 304 115 103 98 145 217 145 405
-1 176 -39 293 -130 390 -55 59 -125 97 -211 115 -83 18 -138 18 -220 0z m240
-158 c81 -48 129 -135 148 -272 28 -206 -56 -403 -190 -443 -89 -27 -187 -9
-251 45 -159 136 -151 539 13 655 78 56 199 62 280 15z"/>
<path d="M37195 40144 c-107 -21 -137 -30 -179 -51 -167 -85 -255 -267 -243
-502 10 -200 92 -346 238 -426 124 -67 332 -71 496 -9 l43 17 0 73 c0 41 -2
74 -5 74 -3 0 -23 -9 -43 -19 -99 -50 -255 -65 -353 -34 -73 23 -148 97 -180
178 -20 52 -23 77 -23 185 0 106 3 134 22 181 30 76 81 132 150 166 51 25 67
28 157 28 97 -1 141 -11 258 -60 15 -6 17 0 17 68 l0 75 -62 21 c-102 33 -226
48 -293 35z"/>
<path d="M39331 40134 c-69 -18 -108 -43 -160 -99 l-41 -45 0 70 0 70 -85 0
-85 0 0 -495 0 -495 85 0 85 0 0 315 c0 290 2 320 20 372 26 73 65 122 123
152 59 30 155 38 220 18 l47 -15 0 78 c0 62 -3 79 -16 84 -28 11 -137 5 -193
-10z"/>
<path d="M41005 40140 c-33 -5 -97 -21 -142 -35 l-83 -26 0 -73 0 -74 73 28
c183 71 373 64 461 -18 37 -35 66 -97 66 -144 l0 -38 -157 0 c-292 0 -420 -53
-487 -199 -16 -36 -20 -67 -21 -136 0 -79 4 -97 28 -147 37 -75 94 -123 175
-148 161 -50 353 2 436 118 l26 37 0 -73 0 -72 81 0 80 0 -3 353 c-3 299 -6
360 -21 404 -37 112 -122 196 -230 228 -66 20 -204 27 -282 15z m375 -564 c0
-124 -68 -248 -164 -299 -33 -18 -58 -22 -132 -22 -82 0 -94 3 -132 27 -55 37
-76 79 -77 153 0 74 25 121 81 152 55 31 123 40 287 42 l137 1 0 -54z"/>
<path d="M44102 40139 c-62 -12 -138 -57 -183 -108 l-39 -44 0 72 0 71 -80 0
-80 0 0 -495 0 -495 79 0 80 0 3 323 c3 306 4 325 26 377 24 60 76 117 132
145 48 25 154 31 208 12 l42 -15 0 78 c0 62 -3 79 -16 84 -21 8 -120 6 -172
-5z"/>
<path d="M44695 40140 c-33 -5 -97 -21 -142 -35 l-83 -26 0 -74 0 -74 62 26
c174 70 358 70 450 -1 53 -40 77 -81 85 -145 l6 -51 -159 0 c-228 0 -336 -27
-422 -104 -62 -56 -87 -122 -87 -231 0 -109 25 -175 87 -231 69 -62 118 -79
238 -79 143 0 194 18 277 99 l63 62 0 -68 0 -68 81 0 80 0 -3 353 c-3 330 -5
356 -25 409 -45 119 -110 184 -223 219 -74 23 -202 31 -285 19z m372 -585 c-9
-126 -70 -230 -162 -277 -25 -13 -67 -23 -111 -26 -113 -7 -180 25 -215 102
-40 87 -10 192 67 233 55 31 123 40 288 42 l139 1 -6 -75z"/>
<path d="M39600 40117 c0 -11 74 -211 342 -925 l20 -53 110 3 111 3 182 485
c100 267 181 488 178 493 -2 4 -40 7 -83 7 l-78 0 -30 -77 c-16 -43 -85 -228
-153 -412 -87 -235 -126 -329 -133 -319 -5 8 -75 192 -156 409 l-146 394 -82
3 c-65 2 -82 0 -82 -11z"/>
<path d="M18570 39625 l0 -495 80 0 80 0 0 495 0 495 -80 0 -80 0 0 -495z"/>
<path d="M37810 39798 c0 -178 5 -352 11 -388 21 -134 84 -226 184 -272 41
-19 67 -23 150 -23 93 0 105 2 167 33 42 20 82 50 107 79 l41 46 0 -72 0 -71
85 0 85 0 0 495 0 495 -85 0 -85 0 0 -319 c0 -357 -4 -388 -68 -461 -48 -57
-103 -82 -188 -88 -114 -7 -186 37 -225 138 -10 26 -14 124 -17 383 l-3 347
-80 0 -79 0 0 -322z"/>
<path d="M42560 39843 c1 -430 14 -520 90 -620 50 -66 126 -103 229 -110 130
-9 228 30 309 122 l42 48 0 -77 0 -76 80 0 80 0 0 495 0 495 -79 0 -80 0 -3
-327 -3 -328 -26 -55 c-48 -103 -119 -151 -232 -158 -121 -8 -191 37 -223 144
-11 37 -14 123 -14 386 l0 338 -85 0 -85 0 0 -277z"/>
<path d="M35540 39630 l0 -70 235 0 235 0 0 70 0 70 -235 0 -235 0 0 -70z"/>
<path d="M6030 36205 l0 -2105 -230 0 -230 0 0 -60 0 -60 230 0 230 0 0 -2180
0 -2180 -230 0 -230 0 0 -60 0 -60 230 0 230 0 0 -2185 0 -2185 -230 0 -230 0
0 -60 0 -60 230 0 230 0 0 -2185 0 -2185 -230 0 -230 0 0 -60 0 -60 230 0 230
0 0 -2185 0 -2185 -230 0 -230 0 0 -60 0 -60 230 0 230 0 0 -2185 0 -2185
-230 0 -230 0 0 -60 0 -60 230 0 230 0 0 -2185 0 -2185 -230 0 -230 0 0 -60 0
-60 230 0 230 0 0 -740 0 -740 1140 0 1140 0 0 -235 0 -235 60 0 60 0 0 235 0
235 3650 0 3650 0 0 -235 0 -235 60 0 60 0 0 235 0 235 3655 0 3655 0 0 -235
0 -235 60 0 60 0 0 235 0 235 3650 0 3650 0 0 -235 0 -235 60 0 60 0 0 235 0
235 3650 0 3650 0 0 -235 0 -235 60 0 60 0 0 235 0 235 3650 0 3650 0 0 -235
0 -235 60 0 60 0 0 235 0 235 3650 0 3650 0 0 -235 0 -235 60 0 60 0 0 235 0
235 1705 0 1705 0 0 16370 0 16370 -25170 0 -25170 0 0 -2105z m50220 -14265
l0 -16250 -25050 0 -25050 0 0 16250 0 16250 25050 0 25050 0 0 -16250z"/>
<path d="M16040 36815 c-55 -75 -100 -138 -100 -140 0 -8 94 -5 106 3 12 8
216 241 228 260 5 9 -10 12 -63 12 l-71 0 -100 -135z"/>
<path d="M15300 36805 l0 -85 70 0 70 0 0 85 0 85 -70 0 -70 0 0 -85z"/>
<path d="M39625 36859 c-3837 -15 -7398 -55 -9815 -109 l-1305 -29 -1076 -245
-1076 -244 -1049 -297 c-2215 -626 -4587 -1368 -6675 -2087 l-1116 -385 -984
-759 c-541 -417 -1001 -775 -1021 -794 -21 -20 -393 -605 -871 -1370 l-835
-1336 -712 -2289 -712 -2290 -678 -2835 c-850 -3552 -1833 -7736 -2739 -11652
-386 -1665 -705 -3046 -710 -3067 l-9 -40 107 -25 c58 -13 106 -24 106 -23 1
1 309 1332 684 2957 880 3805 1926 8260 2776 11810 l673 2815 707 2273 706
2272 827 1322 827 1321 982 758 982 757 1118 385 c2069 713 4425 1449 6625
2072 l1048 296 1077 243 1078 244 1550 31 c4205 85 8332 111 17863 111 l6162
0 0 110 0 110 -6287 -2 c-3459 -1 -7161 -5 -8228 -9z"/>
<path d="M11985 36844 c-164 -40 -254 -160 -243 -323 11 -156 97 -227 335
-277 140 -29 219 -65 251 -114 32 -47 28 -149 -7 -198 -77 -108 -305 -115
-517 -16 -28 13 -54 24 -57 24 -4 0 -7 -32 -7 -70 0 -81 -6 -76 130 -111 158
-41 358 -34 465 15 72 33 110 69 142 134 38 78 40 200 4 280 -47 104 -131 154
-336 198 -172 36 -215 55 -241 105 -18 36 -18 112 0 147 31 59 77 87 166 101
100 16 199 -2 353 -64 15 -6 17 0 17 64 l0 70 -42 12 c-146 39 -307 48 -413
23z"/>
<path d="M18247 36825 c-171 -35 -157 -26 -157 -101 0 -35 4 -64 9 -64 8 0
183 34 229 45 l22 5 0 -420 0 -420 -120 0 -120 0 0 -60 0 -60 315 0 315 0 0
60 0 60 -120 0 -120 0 -2 488 -3 487 -65 2 c-37 1 -116 -9 -183 -22z"/>
<path d="M12964 36577 c-111 -29 -215 -120 -255 -225 -34 -87 -39 -257 -10
-351 49 -162 180 -257 372 -268 89 -6 214 13 290 44 l39 15 0 64 0 64 -38 -19
c-110 -56 -297 -71 -389 -31 -29 12 -68 40 -87 61 -35 38 -66 118 -66 171 l0
28 310 0 311 0 -6 78 c-20 244 -131 369 -337 378 -48 2 -104 -2 -134 -9z m166
-108 c88 -19 153 -95 167 -194 l6 -45 -243 0 -242 0 7 37 c7 41 39 108 64 137
29 33 99 62 183 75 4 1 30 -4 58 -10z"/>
<path d="M13903 36579 c-144 -28 -258 -142 -292 -290 -15 -63 -13 -205 3 -265
32 -123 118 -223 224 -265 83 -33 249 -33 345 -1 l67 24 0 60 c0 53 -2 60 -17
55 -10 -4 -45 -16 -78 -28 -138 -49 -291 -17 -354 75 -81 117 -81 315 0 432
63 92 216 124 354 75 33 -12 68 -24 78 -28 15 -5 17 2 17 55 l0 60 -38 15
c-84 34 -215 45 -309 26z"/>
<path d="M14715 36577 c-162 -42 -261 -158 -287 -337 -36 -248 84 -451 294
-500 85 -19 224 -7 310 27 l38 15 0 60 c0 53 -2 59 -17 53 -128 -52 -250 -63
-331 -30 -55 22 -116 93 -138 158 -24 69 -24 205 -1 273 60 177 226 223 470
128 16 -6 18 -1 15 57 l-3 63 -60 19 c-76 24 -223 31 -290 14z"/>
<path d="M15934 36579 c-112 -27 -208 -122 -246 -244 -32 -100 -31 -253 0
-351 57 -175 197 -266 388 -251 215 16 334 168 334 427 0 208 -69 337 -217
402 -54 24 -193 33 -259 17z m211 -133 c80 -43 125 -146 125 -286 0 -96 -16
-162 -53 -217 -97 -144 -301 -126 -376 33 -47 98 -45 278 3 373 60 118 186
159 301 97z"/>
<path d="M16955 36581 c-52 -13 -110 -48 -148 -90 l-37 -41 0 60 0 60 -70 0
-70 0 0 -410 0 -410 70 0 70 0 0 258 c0 281 6 324 55 387 68 90 231 107 302
32 53 -56 56 -78 61 -389 l4 -288 64 0 65 0 -3 313 -3 312 -33 67 c-36 74 -80
113 -150 134 -48 15 -127 17 -177 5z"/>
<path d="M15300 36160 l0 -410 70 0 70 0 0 410 0 410 -70 0 -70 0 0 -410z"/>
<path d="M7340 36275 l0 -105 1605 0 1605 0 0 105 0 105 -1605 0 -1605 0 0
-105z"/>
<path d="M4377 34564 c-38 -8 -93 -24 -123 -35 l-54 -20 0 -70 c0 -38 4 -69 9
-69 5 0 37 13 72 30 169 78 305 80 389 4 50 -46 63 -80 58 -157 -6 -98 -42
-148 -305 -421 l-232 -241 -1 -57 0 -58 350 0 350 0 0 60 0 60 -255 2 -254 3
200 208 c272 283 307 340 297 490 -11 172 -136 275 -343 283 -57 2 -115 -2
-158 -12z"/>
<path d="M3460 34544 c-63 -13 -125 -26 -137 -29 -21 -5 -23 -11 -23 -70 0
-49 3 -65 14 -65 12 0 175 31 234 45 l22 5 0 -420 0 -420 -120 0 -120 0 0 -60
0 -60 315 0 315 0 0 60 0 60 -125 0 -125 0 0 490 0 490 -67 -1 c-38 -1 -120
-12 -183 -25z"/>
<path d="M4437 30073 c-107 -36 -199 -163 -233 -323 -23 -104 -22 -339 1 -445
33 -156 105 -264 210 -315 69 -34 216 -35 287 -3 103 47 178 151 215 299 26
106 24 391 -5 496 -58 212 -168 309 -350 307 -42 0 -99 -7 -125 -16z m196
-107 c104 -43 157 -191 157 -441 0 -239 -47 -382 -142 -431 -46 -24 -128 -21
-175 6 -77 43 -116 134 -135 314 -20 195 14 409 78 494 48 63 145 89 217 58z"/>
<path d="M3460 30054 c-63 -13 -125 -26 -137 -29 -21 -5 -23 -11 -23 -70 0
-49 3 -65 14 -65 12 0 175 31 234 45 l22 5 0 -420 0 -420 -120 0 -120 0 0 -60
0 -60 315 0 315 0 0 60 0 60 -125 0 -125 0 0 490 0 490 -67 -1 c-38 -1 -120
-12 -183 -25z"/>
<path d="M4425 25587 c-66 -22 -99 -43 -142 -90 -47 -51 -63 -97 -63 -182 1
-102 49 -176 142 -220 l47 -22 -55 -22 c-110 -46 -173 -158 -161 -288 17 -177
132 -277 334 -290 263 -18 425 117 411 341 -8 114 -61 192 -162 237 l-49 21
33 15 c100 42 150 120 150 235 -1 120 -50 196 -160 247 -47 22 -71 26 -170 28
-75 2 -129 -2 -155 -10z m220 -108 c109 -30 158 -173 95 -276 -66 -109 -295
-101 -354 12 -37 72 -22 179 32 228 47 42 147 58 227 36z m0 -480 c55 -15 101
-52 126 -101 31 -60 24 -169 -13 -225 -73 -111 -282 -119 -371 -14 -78 93 -53
266 45 317 68 35 140 43 213 23z"/>
<path d="M1745 25060 c-144 -23 -355 -103 -482 -183 -42 -27 -43 -28 -43 -82
0 -30 2 -55 4 -55 2 0 43 20 92 44 205 101 367 140 579 139 204 -1 347 -35
553 -133 l102 -49 0 58 0 57 -83 47 c-187 105 -357 156 -542 162 -66 2 -147 0
-180 -5z"/>
<path d="M1775 24479 c-176 -29 -266 -134 -252 -291 9 -99 60 -182 147 -239
l25 -16 -42 -21 c-22 -12 -57 -40 -76 -63 -90 -104 -68 -297 44 -393 l43 -36
-62 0 -62 0 0 -65 0 -65 410 0 410 0 0 64 0 64 -272 4 -273 3 -58 28 c-66 33
-100 77 -117 150 -13 61 0 121 36 158 50 52 97 59 406 59 l278 0 0 64 0 64
-267 5 c-275 4 -311 9 -368 48 -92 63 -120 214 -53 286 53 57 58 58 386 61
l302 3 0 70 0 69 -267 -1 c-148 -1 -290 -5 -318 -10z"/>
<path d="M2170 22915 l0 -75 95 0 95 0 0 75 0 75 -95 0 -95 0 0 -75z"/>
<path d="M1763 22539 c-163 -27 -254 -142 -240 -305 6 -77 34 -138 89 -193
l42 -41 -57 0 -57 0 0 -70 0 -70 410 0 410 0 0 70 0 70 -266 0 c-289 0 -320 4
-379 52 -93 77 -107 238 -28 310 47 42 92 48 389 48 l284 0 0 70 0 70 -272 -1
c-150 -1 -297 -5 -325 -10z"/>
<path d="M1820 21629 c-122 -24 -241 -119 -277 -222 -24 -71 -24 -213 0 -285
38 -108 152 -196 287 -222 240 -46 467 50 527 222 25 75 25 215 -2 287 -40
108 -154 197 -284 221 -64 12 -188 11 -251 -1z m278 -152 c122 -43 184 -139
162 -255 -13 -70 -51 -116 -127 -154 -65 -32 -72 -33 -184 -33 -113 0 -118 1
-185 35 -91 47 -126 100 -126 193 0 116 64 189 197 224 62 16 205 11 263 -10z"/>
<path d="M4530 21094 c-212 -57 -330 -255 -330 -555 0 -279 75 -451 229 -526
49 -25 67 -28 151 -28 66 0 111 6 148 18 74 26 151 100 188 179 26 57 29 73
29 173 0 100 -3 116 -28 170 -34 73 -85 128 -152 163 -45 24 -61 27 -155 27
-92 0 -111 -3 -153 -25 -27 -13 -63 -40 -80 -59 l-30 -35 6 74 c12 160 85 272
202 305 72 21 173 16 259 -14 33 -12 61 -21 63 -21 1 0 3 29 3 65 l0 64 -38
11 c-125 33 -223 38 -312 14z m125 -495 c172 -48 199 -382 37 -476 -51 -30
-149 -35 -198 -10 -72 38 -115 113 -122 213 -13 201 111 320 283 273z"/>
<path d="M1540 20630 l0 -140 -115 0 -115 0 0 -65 0 -65 115 0 115 0 0 -50 0
-50 50 0 50 0 0 50 0 50 268 0 c164 0 282 4 307 11 106 30 137 88 143 272 l4
127 -54 0 -55 0 -5 -105 c-7 -122 -19 -149 -75 -164 -22 -6 -144 -11 -285 -11
l-248 0 0 140 0 140 -50 0 -50 0 0 -140z"/>
<path d="M1220 20039 l0 -58 70 -42 c225 -133 476 -195 697 -170 148 17 257
51 421 132 l142 70 0 60 c0 34 -3 59 -7 57 -5 -2 -51 -24 -103 -49 -376 -182
-766 -177 -1136 14 l-84 44 0 -58z"/>
<path d="M1272 19388 l3 -112 357 -136 c196 -74 359 -138 363 -141 3 -4 -99
-46 -227 -94 -128 -47 -293 -109 -365 -137 l-133 -50 0 -109 0 -109 545 0 545
0 0 70 0 70 -472 0 c-266 0 -466 4 -458 9 8 5 174 68 368 141 l353 133 -3 76
-3 75 -360 136 -360 135 468 3 467 2 0 75 0 75 -545 0 -546 0 3 -112z"/>
<path d="M4391 16258 l-231 -353 0 -67 0 -68 250 0 250 0 0 -130 0 -130 75 0
75 0 0 130 0 130 75 0 75 0 0 60 0 60 -75 0 -75 0 -2 358 -3 357 -91 3 -91 3
-232 -353z m269 -78 l0 -290 -186 0 c-104 0 -184 4 -182 9 5 13 361 571 365
571 2 0 3 -130 3 -290z"/>
<path d="M4390 12125 c-36 -7 -90 -22 -120 -33 l-55 -19 -3 -71 c-2 -40 -1
-72 1 -72 2 0 34 14 71 30 91 41 189 63 257 57 148 -13 227 -121 189 -259 -20
-70 -95 -163 -312 -383 l-218 -222 0 -62 0 -61 345 0 345 0 0 60 0 60 -257 0
-258 0 151 153 c226 229 286 298 324 372 31 61 35 77 35 150 0 71 -4 89 -30
140 -34 67 -102 125 -175 151 -63 22 -210 27 -290 9z"/>
<path d="M4433 7629 c-167 -65 -252 -274 -240 -589 8 -213 44 -325 133 -420
81 -86 218 -121 339 -85 189 55 275 228 275 556 0 281 -70 452 -214 527 -71
36 -216 42 -293 11z m213 -108 c82 -37 126 -131 145 -309 13 -118 6 -261 -17
-360 -32 -143 -102 -215 -209 -215 -152 0 -225 146 -225 448 0 195 28 315 88
386 60 70 136 87 218 50z"/>
<path d="M7053 4519 c-167 -65 -252 -274 -240 -589 8 -213 44 -325 133 -420
81 -86 218 -121 339 -85 189 55 275 228 275 556 0 281 -70 452 -214 527 -71
36 -216 42 -293 11z m213 -108 c82 -37 126 -131 145 -309 13 -118 6 -261 -17
-360 -32 -143 -102 -215 -209 -215 -152 0 -225 146 -225 448 0 195 28 315 88
386 60 70 136 87 218 50z"/>
<path d="M8482 4523 c-101 -36 -192 -158 -229 -308 -26 -106 -23 -383 5 -486
41 -151 101 -237 200 -286 50 -25 68 -28 152 -28 84 0 102 3 152 28 153 75
222 243 221 542 -1 177 -17 263 -70 370 -34 70 -116 147 -179 169 -60 20 -194
20 -252 -1z m237 -131 c85 -69 116 -178 116 -412 0 -179 -12 -252 -52 -338
-41 -88 -124 -131 -215 -110 -119 26 -174 142 -185 393 -10 222 25 376 103
452 48 47 66 53 143 48 41 -3 62 -11 90 -33z"/>
<path d="M9447 4526 c-131 -48 -207 -159 -244 -351 -20 -103 -13 -371 12 -459
39 -139 105 -229 204 -275 48 -22 70 -26 146 -26 112 0 173 25 240 97 101 106
141 264 132 513 -10 262 -72 405 -208 480 -47 26 -66 30 -149 32 -64 2 -107
-1 -133 -11z m221 -129 c49 -32 86 -103 108 -207 23 -112 15 -400 -14 -490
-38 -115 -104 -173 -197 -173 -95 0 -160 59 -198 178 -19 62 -22 92 -22 260 0
217 12 289 59 367 59 98 172 126 264 65z"/>
<path d="M14473 4519 c-167 -65 -252 -274 -240 -589 8 -213 44 -325 133 -420
81 -86 218 -121 339 -85 189 55 275 228 275 556 0 281 -70 452 -214 527 -71
36 -216 42 -293 11z m213 -108 c82 -37 126 -131 145 -309 13 -118 6 -261 -17
-360 -32 -143 -102 -215 -209 -215 -152 0 -225 146 -225 448 0 195 28 315 88
386 60 70 136 87 218 50z"/>
<path d="M15902 4523 c-101 -36 -192 -158 -229 -308 -26 -106 -23 -383 5 -486
41 -151 101 -237 200 -286 50 -25 68 -28 152 -28 84 0 102 3 152 28 153 75
222 243 221 542 -1 177 -17 263 -70 370 -34 70 -116 147 -179 169 -60 20 -194
20 -252 -1z m237 -131 c85 -69 116 -178 116 -412 0 -179 -12 -252 -52 -338
-41 -88 -124 -131 -215 -110 -119 26 -174 142 -185 393 -10 222 25 376 103
452 48 47 66 53 143 48 41 -3 62 -11 90 -33z"/>
<path d="M21893 4519 c-167 -65 -252 -274 -240 -589 8 -213 44 -325 133 -420
81 -86 218 -121 339 -85 189 55 275 228 275 556 0 281 -70 452 -214 527 -71
36 -216 42 -293 11z m213 -108 c82 -37 126 -131 145 -309 13 -118 6 -261 -17
-360 -32 -143 -102 -215 -209 -215 -152 0 -225 146 -225 448 0 195 28 315 88
386 60 70 136 87 218 50z"/>
<path d="M23322 4523 c-101 -36 -192 -158 -229 -308 -26 -106 -23 -383 5 -486
41 -151 101 -237 200 -286 50 -25 68 -28 152 -28 84 0 102 3 152 28 153 75
222 243 221 542 -1 177 -17 263 -70 370 -34 70 -116 147 -179 169 -60 20 -194
20 -252 -1z m237 -131 c85 -69 116 -178 116 -412 0 -179 -12 -252 -52 -338
-41 -88 -124 -131 -215 -110 -119 26 -174 142 -185 393 -10 222 25 376 103
452 48 47 66 53 143 48 41 -3 62 -11 90 -33z"/>
<path d="M24265 4533 c-78 -17 -146 -36 -182 -50 l-43 -16 0 -68 c0 -38 4 -69
9 -69 5 0 37 13 72 30 226 105 414 65 450 -96 10 -43 9 -60 -6 -106 -24 -79
-87 -156 -319 -395 l-206 -211 0 -61 0 -61 345 0 345 0 0 60 0 60 -256 0 -256
0 198 206 c212 220 249 264 284 347 28 65 31 161 6 234 -31 92 -126 167 -244
192 -52 11 -157 13 -197 4z"/>
<path d="M29323 4519 c-167 -65 -252 -274 -240 -589 8 -213 44 -325 133 -420
81 -86 218 -121 339 -85 189 55 275 228 275 556 0 281 -70 452 -214 527 -71
36 -216 42 -293 11z m213 -108 c82 -37 126 -131 145 -309 13 -118 6 -261 -17
-360 -32 -143 -102 -215 -209 -215 -152 0 -225 146 -225 448 0 195 28 315 88
386 60 70 136 87 218 50z"/>
<path d="M30752 4523 c-101 -36 -192 -158 -229 -308 -26 -106 -23 -383 5 -486
41 -151 101 -237 200 -286 50 -25 68 -28 152 -28 84 0 102 3 152 28 153 75
222 243 221 542 -1 177 -17 263 -70 370 -34 70 -116 147 -179 169 -60 20 -194
20 -252 -1z m237 -131 c85 -69 116 -178 116 -412 0 -179 -12 -252 -52 -338
-41 -88 -124 -131 -215 -110 -119 26 -174 142 -185 393 -10 222 25 376 103
452 48 47 66 53 143 48 41 -3 62 -11 90 -33z"/>
<path d="M31631 4524 c-133 -25 -131 -23 -131 -94 0 -33 3 -60 8 -60 4 0 41
10 82 21 101 27 223 35 289 19 132 -31 184 -169 100 -265 -41 -46 -106 -65
-226 -65 l-93 0 0 -59 0 -58 113 -5 c120 -6 163 -18 210 -62 39 -36 57 -85 57
-153 0 -102 -56 -169 -165 -198 -106 -27 -262 -12 -354 34 -22 12 -43 21 -46
21 -3 0 -5 -31 -5 -70 l0 -69 43 -11 c23 -6 58 -16 77 -21 57 -16 230 -22 290
-11 142 27 230 83 277 180 24 50 28 69 28 147 0 74 -4 98 -22 131 -28 53 -93
109 -147 127 l-41 14 45 20 c54 24 107 75 128 123 23 53 20 158 -7 214 -29 58
-89 110 -160 137 -75 28 -235 34 -350 13z"/>
<path d="M36743 4519 c-167 -65 -252 -274 -240 -589 8 -213 44 -325 133 -420
81 -86 218 -121 339 -85 189 55 275 228 275 556 0 281 -70 452 -214 527 -71
36 -216 42 -293 11z m213 -108 c82 -37 126 -131 145 -309 13 -118 6 -261 -17
-360 -32 -143 -102 -215 -209 -215 -152 0 -225 146 -225 448 0 195 28 315 88
386 60 70 136 87 218 50z"/>
<path d="M38172 4523 c-101 -36 -192 -158 -229 -308 -26 -106 -23 -383 5 -486
41 -151 101 -237 200 -286 50 -25 68 -28 152 -28 84 0 102 3 152 28 153 75
222 243 221 542 -1 177 -17 263 -70 370 -34 70 -116 147 -179 169 -60 20 -194
20 -252 -1z m237 -131 c85 -69 116 -178 116 -412 0 -179 -12 -252 -52 -338
-41 -88 -124 -131 -215 -110 -119 26 -174 142 -185 393 -10 222 25 376 103
452 48 47 66 53 143 48 41 -3 62 -11 90 -33z"/>
<path d="M44163 4519 c-167 -65 -252 -274 -240 -589 8 -213 44 -325 133 -420
81 -86 218 -121 339 -85 189 55 275 228 275 556 0 281 -70 452 -214 527 -71
36 -216 42 -293 11z m213 -108 c82 -37 126 -131 145 -309 13 -118 6 -261 -17
-360 -32 -143 -102 -215 -209 -215 -152 0 -225 146 -225 448 0 195 28 315 88
386 60 70 136 87 218 50z"/>
<path d="M45592 4523 c-101 -36 -192 -158 -229 -308 -26 -106 -23 -383 5 -486
41 -151 101 -237 200 -286 50 -25 68 -28 152 -28 84 0 102 3 152 28 153 75
222 243 221 542 -1 177 -17 263 -70 370 -34 70 -116 147 -179 169 -60 20 -194
20 -252 -1z m237 -131 c85 -69 116 -178 116 -412 0 -179 -12 -252 -52 -338
-41 -88 -124 -131 -215 -110 -119 26 -174 142 -185 393 -10 222 25 376 103
452 48 47 66 53 143 48 41 -3 62 -11 90 -33z"/>
<path d="M51583 4519 c-167 -65 -252 -274 -240 -589 8 -213 44 -325 133 -420
81 -86 218 -121 339 -85 189 55 275 228 275 556 0 281 -70 452 -214 527 -71
36 -216 42 -293 11z m213 -108 c82 -37 126 -131 145 -309 13 -118 6 -261 -17
-360 -32 -143 -102 -215 -209 -215 -152 0 -225 146 -225 448 0 195 28 315 88
386 60 70 136 87 218 50z"/>
<path d="M53012 4523 c-101 -36 -192 -158 -229 -308 -26 -106 -23 -383 5 -486
41 -151 101 -237 200 -286 50 -25 68 -28 152 -28 84 0 102 3 152 28 153 75
222 243 221 542 -1 177 -17 263 -70 370 -34 70 -116 147 -179 169 -60 20 -194
20 -252 -1z m237 -131 c85 -69 116 -178 116 -412 0 -179 -12 -252 -52 -338
-41 -88 -124 -131 -215 -110 -119 26 -174 142 -185 393 -10 222 25 376 103
452 48 47 66 53 143 48 41 -3 62 -11 90 -33z"/>
<path d="M54065 4527 c-244 -63 -374 -325 -335 -674 18 -169 59 -270 142 -350
69 -68 125 -88 243 -88 93 0 105 2 167 33 80 39 138 101 169 181 18 45 22 76
22 156 0 130 -24 196 -97 270 -72 74 -140 98 -261 93 -100 -5 -131 -17 -197
-76 l-41 -37 6 75 c10 138 63 231 160 282 59 32 215 31 301 0 33 -12 61 -22
63 -22 1 0 3 29 3 64 l0 63 -62 18 c-81 23 -218 28 -283 12z m165 -521 c25
-16 50 -46 67 -79 23 -44 27 -65 28 -137 0 -105 -21 -165 -74 -213 -89 -80
-244 -64 -305 31 -38 59 -49 107 -44 196 7 117 45 183 128 221 53 23 150 14
200 -19z"/>
<path d="M16830 4504 c-63 -13 -125 -26 -137 -29 -21 -5 -23 -11 -23 -70 0
-47 4 -65 13 -65 11 0 137 26 225 45 l22 5 0 -420 0 -420 -120 0 -120 0 0 -60
0 -60 315 0 315 0 0 60 0 60 -120 0 -120 0 0 490 0 490 -67 -1 c-38 0 -120
-11 -183 -25z"/>
<path d="M39213 4383 c-53 -82 -156 -239 -230 -351 l-133 -203 0 -70 0 -69
245 0 245 0 0 -130 0 -130 75 0 75 0 0 130 0 130 80 0 80 0 0 60 0 60 -80 0
-80 0 0 360 0 360 -90 0 -91 0 -96 -147z m127 -288 l0 -285 -185 0 -184 0 182
285 c100 157 183 285 185 285 1 0 2 -128 2 -285z"/>
<path d="M46360 4250 c0 -148 2 -270 3 -270 2 0 30 10 63 21 45 17 84 22 164
23 100 1 108 -1 160 -30 38 -22 64 -46 85 -79 27 -44 30 -56 30 -135 0 -79 -3
-91 -30 -135 -41 -66 -110 -104 -203 -112 -84 -7 -189 10 -261 43 -29 13 -55
24 -58 24 -2 0 -3 -33 -1 -72 l3 -73 70 -18 c105 -27 265 -33 349 -13 130 31
204 88 255 196 23 48 26 68 26 160 0 92 -3 112 -26 160 -14 31 -40 72 -57 91
-41 47 -132 94 -210 109 -61 12 -169 9 -204 -5 -17 -7 -18 3 -18 129 l0 136
220 0 220 0 0 60 0 60 -290 0 -290 0 0 -270z"/>
<path d="M7810 3525 l0 -95 80 0 80 0 0 95 0 95 -80 0 -80 0 0 -95z"/>
<path d="M15230 3525 l0 -95 80 0 80 0 0 95 0 95 -80 0 -80 0 0 -95z"/>
<path d="M22650 3525 l0 -95 80 0 80 0 0 95 0 95 -80 0 -80 0 0 -95z"/>
<path d="M30080 3525 l0 -95 80 0 80 0 0 95 0 95 -80 0 -80 0 0 -95z"/>
<path d="M37500 3525 l0 -95 80 0 80 0 0 95 0 95 -80 0 -80 0 0 -95z"/>
<path d="M44920 3525 l0 -95 80 0 80 0 0 95 0 95 -80 0 -80 0 0 -95z"/>
<path d="M52340 3525 l0 -95 80 0 80 0 0 95 0 95 -80 0 -80 0 0 -95z"/>
<path d="M29447 2478 c-134 -231 -187 -409 -187 -630 0 -133 16 -226 61 -356
31 -87 117 -262 147 -294 17 -20 112 -26 112 -8 0 6 -18 47 -41 91 -22 45 -55
127 -74 182 -108 323 -83 643 74 960 l49 97 -58 0 c-58 0 -58 0 -83 -42z"/>
<path d="M31930 2299 l0 -222 -40 46 c-51 57 -109 86 -192 94 -206 19 -351
-135 -365 -387 -15 -268 107 -451 310 -467 99 -8 167 16 233 82 l54 54 0 -60
0 -59 65 0 65 0 0 570 0 570 -65 0 -65 0 0 -221z m-128 -222 c82 -45 121 -138
121 -287 0 -185 -62 -288 -187 -311 -100 -18 -192 34 -237 134 -21 46 -24 67
-24 177 0 109 3 132 23 176 57 127 188 175 304 111z"/>
<path d="M34292 2513 c140 -272 183 -429 182 -663 0 -212 -40 -372 -140 -572
-24 -48 -44 -90 -44 -93 0 -3 26 -5 57 -3 l58 3 47 85 c224 400 222 776 -6
1177 l-41 73 -58 0 c-32 0 -57 -3 -55 -7z"/>
<path d="M32536 2328 c-25 -79 -108 -348 -186 -598 -77 -250 -143 -463 -146
-473 -5 -16 1 -18 58 -15 l63 3 187 605 c103 333 188 608 188 613 0 4 -27 7
-60 7 l-59 0 -45 -142z"/>
<path d="M30660 2213 c-14 -2 -60 -13 -102 -25 l-78 -20 0 -63 0 -63 59 24
c78 32 195 47 262 34 103 -20 169 -83 169 -164 l0 -36 -127 0 c-287 -1 -408
-72 -421 -250 -7 -98 11 -153 67 -211 59 -61 131 -84 237 -76 90 7 150 33 203
87 l40 41 3 -53 3 -53 68 -3 69 -3 -4 298 c-5 337 -8 357 -80 438 -47 53 -91
78 -166 94 -51 11 -151 13 -202 4z m310 -476 c0 -108 -59 -208 -142 -242 -58
-24 -157 -23 -199 1 -54 32 -74 68 -73 132 0 124 64 158 302 161 l112 1 0 -53z"/>
<path d="M33143 2206 c-57 -18 -108 -51 -138 -89 l-25 -32 0 58 0 57 -70 0
-70 0 0 -410 0 -410 70 0 70 0 0 268 c0 311 5 336 74 400 73 67 193 77 253 20
57 -53 58 -58 61 -385 l3 -303 70 0 69 0 0 266 c0 176 4 280 12 306 16 53 80
124 125 139 56 18 135 15 172 -7 18 -10 43 -37 54 -59 21 -38 22 -55 25 -342
l3 -303 70 0 69 0 0 263 c0 353 -14 428 -97 511 -102 102 -313 81 -410 -42
-20 -26 -40 -51 -45 -56 -4 -5 -12 3 -17 17 -6 15 -29 47 -52 72 -64 69 -172
93 -276 61z"/>
<path d="M28470 2201 c-163 -50 -249 -192 -250 -411 0 -229 117 -399 293 -425
l47 -7 0 -144 0 -144 70 0 70 0 0 144 0 144 47 7 c143 21 254 146 284 319 14
82 7 219 -15 291 -70 230 -343 317 -432 138 -17 -34 -19 -69 -22 -339 l-4
-302 -35 8 c-49 12 -109 73 -135 140 -17 44 -22 77 -22 160 -1 139 18 195 91
268 51 51 53 55 53 108 0 30 -3 54 -7 53 -5 0 -19 -4 -33 -8z m349 -157 c20
-24 45 -66 54 -95 38 -115 30 -282 -16 -363 -26 -47 -81 -93 -125 -105 l-32
-10 0 295 c0 277 1 295 19 313 27 27 54 17 100 -35z"/>
<path d="M30150 2201 c-53 -17 -109 -52 -139 -88 l-31 -38 0 63 0 62 -65 0
-65 0 0 -410 0 -410 64 0 64 0 4 268 3 267 28 58 c31 62 70 98 131 117 37 12
116 9 164 -5 21 -7 22 -5 22 59 l0 66 -77 -1 c-43 0 -89 -4 -103 -8z"/>
</g>
</svg>
