<?xml version="1.0" standalone="no"?>
<!DOCTYPE svg PUBLIC "-//W3C//DTD SVG 20010904//EN"
 "http://www.w3.org/TR/2001/REC-SVG-20010904/DTD/svg10.dtd">
<svg version="1.0" xmlns="http://www.w3.org/2000/svg"
 width="1383.000000pt" height="802.000000pt" viewBox="0 0 1383.000000 802.000000"
 preserveAspectRatio="xMidYMid meet">

<g transform="translate(0.000000,802.000000) scale(0.100000,-0.100000)"
fill="#000000" stroke="none">
<path d="M894 7815 c-44 -22 -64 -63 -64 -129 l0 -56 -40 0 -40 0 0 -40 0 -40
40 0 40 0 0 -220 0 -220 45 0 45 0 0 220 0 220 50 0 50 0 0 40 0 40 -50 0 -50
0 0 44 c0 53 16 68 79 76 45 5 46 6 46 40 l0 35 -60 2 c-38 2 -71 -3 -91 -12z"/>
<path d="M1704 7508 c-66 -110 -120 -205 -122 -210 -2 -4 46 -8 107 -8 l111 0
-2 -812 -3 -813 -40 -6 -40 -6 42 -2 43 -1 2 -2297 3 -2298 5328 -3 5327 -2 0
-110 c0 -61 3 -110 8 -110 4 0 101 56 216 124 l208 124 -173 102 c-96 57 -188
111 -205 121 -52 32 -54 29 -54 -91 l0 -110 -965 0 -965 0 -3 193 -2 192 -3
-192 -2 -193 -3195 0 -3195 0 -3 193 -2 192 -3 -192 -2 -193 -1130 0 c-972 0
-1130 2 -1130 14 0 8 508 1028 1130 2268 l1129 2253 3 -185 3 -185 3 193 2
192 3195 0 3195 0 3 -192 2 -193 3 197 2 198 -3202 2 c-1762 2 -3248 1 -3303
-2 l-100 -6 91 -4 92 -5 -1124 -2245 -1123 -2245 0 2247 -1 2247 38 4 37 4
-37 1 -38 2 0 815 0 815 111 0 c61 0 109 4 107 8 -13 32 -242 412 -248 412 -4
0 -61 -91 -126 -202z"/>
<path d="M1124 7400 c-27 -11 -54 -48 -54 -75 0 -40 29 -64 103 -86 91 -27 99
-35 67 -61 -31 -25 -96 -20 -119 11 -11 14 -23 19 -37 15 -27 -7 -22 -33 13
-66 20 -19 35 -23 89 -23 56 0 67 3 91 27 31 32 37 88 11 114 -9 9 -46 25 -84
35 -81 23 -97 35 -70 55 28 20 69 18 98 -5 15 -12 33 -18 46 -14 18 4 19 8 9
30 -20 45 -103 67 -163 43z"/>
<path d="M844 6195 c-44 -22 -64 -63 -64 -129 l0 -56 -40 0 -40 0 0 -40 0 -40
40 0 40 0 0 -220 0 -220 45 0 45 0 0 220 0 220 50 0 50 0 0 40 0 40 -50 0 -50
0 0 44 c0 53 16 68 79 76 45 5 46 6 46 40 l0 35 -60 2 c-38 2 -71 -3 -91 -12z"/>
<path d="M1000 5773 c0 -5 23 -69 51 -144 48 -127 51 -138 38 -165 -10 -21
-22 -30 -45 -32 -27 -3 -30 -6 -26 -28 3 -19 10 -24 34 -24 56 0 68 23 196
388 3 7 -5 12 -21 12 -23 0 -28 -9 -62 -111 -43 -128 -37 -130 -89 29 -24 73
-30 82 -52 82 -13 0 -24 -3 -24 -7z"/>
<path d="M2228 5653 c56 -2 148 -2 205 0 56 1 10 3 -103 3 -113 0 -159 -2
-102 -3z"/>
<path d="M2828 5653 c56 -2 148 -2 205 0 56 1 10 3 -103 3 -113 0 -159 -2
-102 -3z"/>
<path d="M3428 5653 c56 -2 148 -2 205 0 56 1 10 3 -103 3 -113 0 -159 -2
-102 -3z"/>
<path d="M4124 4870 c0 -113 2 -159 3 -102 2 56 2 148 0 205 -1 56 -3 10 -3
-103z"/>
<path d="M10524 4870 c0 -113 2 -159 3 -102 2 56 2 148 0 205 -1 56 -3 10 -3
-103z"/>
<path d="M4124 4270 c0 -113 2 -159 3 -102 2 56 2 148 0 205 -1 56 -3 10 -3
-103z"/>
<path d="M10524 4270 c0 -113 2 -159 3 -102 2 56 2 148 0 205 -1 56 -3 10 -3
-103z"/>
<path d="M4122 3688 l-2 -188 -70 0 c-68 0 -70 -1 -70 -25 l0 -25 130 0 130 0
0 25 c0 24 -3 25 -55 25 l-55 0 -3 188 -2 187 -3 -187z"/>
<path d="M10524 3670 c0 -113 2 -159 3 -102 2 56 2 148 0 205 -1 56 -3 10 -3
-103z"/>
<path d="M3410 3420 l0 -200 150 0 150 0 0 25 0 25 -120 0 -120 0 0 65 0 65
105 0 105 0 0 25 0 25 -105 0 -105 0 0 60 0 60 115 0 115 0 0 25 0 25 -145 0
-145 0 0 -200z"/>
<path d="M4335 3595 c-16 -15 -25 -36 -25 -55 0 -23 -4 -30 -20 -30 -15 0 -20
-7 -20 -25 0 -18 5 -25 20 -25 19 0 20 -7 20 -120 l0 -120 25 0 25 0 0 120 0
120 30 0 c25 0 30 4 30 25 0 21 -5 25 -30 25 -22 0 -30 5 -30 18 0 24 19 42
46 42 20 0 34 17 34 41 0 5 -18 9 -40 9 -30 0 -47 -7 -65 -25z"/>
<path d="M4715 3608 c-9 -25 -105 -374 -105 -381 0 -4 8 -7 19 -7 15 0 24 21
51 118 18 64 43 154 56 200 22 80 22 82 3 82 -11 0 -22 -6 -24 -12z"/>
<path d="M4819 3491 c-33 -33 -37 -65 -13 -100 10 -14 13 -26 7 -30 -20 -12
-33 -51 -27 -76 15 -61 106 -85 172 -45 36 22 39 32 17 50 -12 10 -20 8 -41
-9 -33 -26 -66 -27 -88 -2 -28 30 3 71 53 71 14 0 21 6 21 20 0 15 -7 20 -24
20 -47 0 -74 53 -40 81 12 10 25 10 57 2 29 -8 46 -8 54 -1 20 16 16 25 -18
37 -57 20 -98 14 -130 -18z"/>
<path d="M3772 3443 c-52 -46 -24 -102 62 -124 52 -13 63 -23 46 -44 -18 -21
-66 -18 -88 5 -12 13 -25 18 -35 14 -23 -9 -21 -21 8 -49 52 -53 165 -19 165
49 0 34 -23 53 -86 72 -41 12 -54 20 -52 32 4 23 55 28 77 8 17 -15 51 -13 51
3 -1 44 -108 68 -148 34z"/>
<path d="M4471 3313 c23 -69 27 -93 20 -110 -6 -13 -17 -23 -26 -23 -20 0 -19
-19 1 -27 27 -10 51 28 83 133 36 117 35 114 17 114 -8 0 -21 -27 -33 -67
l-19 -68 -19 68 c-14 51 -22 67 -36 67 -16 0 -15 -8 12 -87z"/>
<path d="M5031 3313 c23 -69 27 -93 20 -110 -6 -13 -17 -23 -26 -23 -20 0 -19
-19 1 -27 27 -10 51 28 83 133 36 117 35 114 17 114 -8 0 -21 -27 -33 -67
l-19 -68 -19 68 c-14 51 -22 67 -36 67 -16 0 -15 -8 12 -87z"/>
<path d="M3980 3355 l0 -25 130 0 130 0 0 25 0 25 -130 0 -130 0 0 -25z"/>
<path d="M4124 3070 c0 -113 2 -159 3 -102 2 56 2 148 0 205 -1 56 -3 10 -3
-103z"/>
<path d="M10524 3070 c0 -113 2 -159 3 -102 2 56 2 148 0 205 -1 56 -3 10 -3
-103z"/>
<path d="M4124 2475 c0 -110 2 -156 3 -103 2 53 2 143 0 200 -1 57 -3 13 -3
-97z"/>
<path d="M10524 2475 c0 -110 2 -156 3 -103 2 53 2 143 0 200 -1 57 -3 13 -3
-97z"/>
<path d="M4124 1880 c0 -113 2 -159 3 -102 2 56 2 148 0 205 -1 56 -3 10 -3
-103z"/>
<path d="M10524 1880 c0 -113 2 -159 3 -102 2 56 2 148 0 205 -1 56 -3 10 -3
-103z"/>
<path d="M3990 862 c-46 -23 -80 -75 -80 -124 0 -44 21 -92 47 -107 16 -9 15
-13 -14 -36 -95 -76 -44 -232 82 -251 84 -12 187 16 225 61 12 14 10 19 -15
39 l-29 23 -40 -26 c-50 -33 -123 -36 -155 -7 -23 21 -28 74 -11 106 11 21 60
40 101 40 26 0 29 3 29 35 0 33 -2 35 -32 35 -73 0 -121 55 -98 111 22 53 73
63 146 30 l41 -19 29 24 29 24 -24 19 c-55 42 -170 54 -231 23z"/>
<path d="M10130 842 c-46 -23 -80 -75 -80 -124 0 -44 21 -92 47 -107 16 -9 15
-13 -14 -36 -95 -76 -44 -232 82 -251 84 -12 187 16 225 61 12 14 10 19 -15
39 l-29 23 -40 -26 c-50 -33 -123 -36 -155 -7 -23 21 -28 74 -11 106 11 21 60
40 101 40 26 0 29 3 29 35 0 33 -2 35 -32 35 -73 0 -121 55 -98 111 22 53 73
63 146 30 l41 -19 29 24 29 24 -24 19 c-55 42 -170 54 -231 23z"/>
<path d="M12680 742 c-46 -23 -80 -75 -80 -124 0 -44 21 -92 47 -107 16 -9 15
-13 -14 -36 -95 -76 -44 -232 82 -251 84 -12 187 16 225 61 12 14 10 19 -15
39 l-29 23 -40 -26 c-50 -33 -123 -36 -155 -7 -23 21 -28 74 -11 106 11 21 60
40 101 40 26 0 29 3 29 35 0 33 -2 35 -32 35 -73 0 -121 55 -98 111 22 53 73
63 146 30 l41 -19 29 24 29 24 -24 19 c-55 42 -170 54 -231 23z"/>
<path d="M4300 633 c0 -5 23 -69 51 -144 48 -127 51 -138 38 -165 -10 -21 -22
-30 -45 -32 -27 -3 -30 -6 -26 -28 3 -19 10 -24 34 -24 56 0 68 23 196 388 3
7 -5 12 -21 12 -23 0 -28 -9 -62 -111 -43 -128 -37 -130 -89 29 -24 73 -30 82
-52 82 -13 0 -24 -3 -24 -7z"/>
<path d="M10504 620 c-27 -11 -54 -48 -54 -75 0 -40 29 -64 103 -86 91 -27 99
-35 67 -61 -31 -25 -96 -20 -119 11 -11 14 -23 19 -37 15 -27 -7 -22 -33 13
-66 20 -19 35 -23 89 -23 56 0 67 3 91 27 31 32 37 88 11 114 -9 9 -46 25 -84
35 -81 23 -97 35 -70 55 28 20 69 18 98 -5 15 -12 33 -18 46 -14 18 4 19 8 9
30 -20 45 -103 67 -163 43z"/>
<path d="M10742 499 c3 -118 4 -121 31 -145 36 -31 94 -32 131 -3 l26 20 0
-20 c0 -16 6 -21 25 -21 l25 0 0 145 0 145 -24 0 c-24 0 -24 -2 -28 -101 -3
-92 -5 -103 -27 -120 -30 -25 -66 -24 -91 1 -17 17 -20 33 -20 120 l0 100 -26
0 -26 0 4 -121z"/>
</g>
</svg>
