<?xml version="1.0" standalone="no"?>
<!DOCTYPE svg PUBLIC "-//W3C//DTD SVG 20010904//EN"
 "http://www.w3.org/TR/2001/REC-SVG-20010904/DTD/svg10.dtd">
<svg version="1.0" xmlns="http://www.w3.org/2000/svg"
 width="1471.000000pt" height="702.000000pt" viewBox="0 0 1471.000000 702.000000"
 preserveAspectRatio="xMidYMid meet">

<g transform="translate(0.000000,702.000000) scale(0.100000,-0.100000)"
fill="#000000" stroke="none">
<path d="M7360 6635 c0 -138 1 -145 20 -145 11 0 20 5 20 10 0 7 6 7 19 0 33
-17 61 -11 92 19 50 50 36 147 -24 172 -22 9 -37 10 -58 2 l-29 -11 0 49 c0
42 -3 49 -20 49 -19 0 -20 -7 -20 -145z m124 19 c21 -21 21 -92 -1 -116 -36
-40 -83 -10 -83 54 0 66 47 100 84 62z"/>
<path d="M13770 6590 c-28 -28 -30 -72 -4 -100 11 -13 10 -17 -6 -28 -14 -8
-20 -23 -20 -46 0 -62 76 -96 145 -64 28 13 30 19 14 35 -9 9 -18 8 -35 -4
-44 -29 -96 5 -78 51 4 9 19 20 35 23 32 6 40 33 11 33 -40 0 -57 55 -26 81
12 10 22 10 43 2 19 -7 34 -7 46 0 17 9 16 11 -6 23 -37 20 -96 17 -119 -6z"/>
<path d="M5610 6413 c-47 -48 -64 -68 -38 -45 l48 42 1825 0 c1004 0 1825 -3
1825 -7 0 -4 -17 -25 -37 -48 -21 -22 4 0 55 50 50 49 92 92 92 94 0 3 -19
-14 -43 -37 l-43 -42 -1834 0 -1834 0 39 40 c21 22 37 40 34 40 -2 0 -43 -39
-89 -87z"/>
<path d="M13952 6458 c-7 -7 -12 -30 -12 -53 0 -23 5 -46 12 -53 17 -17 53
-15 68 3 17 20 5 32 -15 15 -24 -20 -45 -5 -45 35 0 40 21 55 45 35 20 -17 32
-5 15 15 -15 18 -51 20 -68 3z"/>
<path d="M9420 6354 c0 -5 18 -28 40 -49 36 -36 40 -44 42 -95 l2 -55 3 49 4
49 45 -44 c24 -24 44 -39 44 -33 0 5 -40 50 -90 99 -49 49 -90 85 -90 79z"/>
<path d="M9830 6354 c0 -5 18 -28 40 -49 l40 -39 2 -821 3 -820 2 815 3 814
45 -44 c25 -24 45 -40 45 -34 0 5 -40 50 -90 99 -49 49 -90 85 -90 79z"/>
<path d="M5323 6302 l47 -48 2 -1329 3 -1330 2 1324 3 1325 40 -39 c22 -21 40
-35 40 -29 0 12 -162 174 -175 174 -5 0 12 -22 38 -48z"/>
<path d="M9668 6307 l42 -43 2 -434 3 -435 2 429 3 430 43 -39 c23 -22 4 0
-43 48 -46 48 -87 87 -89 87 -3 0 14 -19 37 -43z"/>
<path d="M10068 6309 l42 -45 2 -1199 3 -1200 2 1194 3 1195 42 -40 42 -39
-39 45 c-22 25 -62 65 -90 90 l-50 44 43 -45z"/>
<path d="M11888 6309 l42 -45 2 -519 3 -520 2 514 3 515 42 -40 42 -39 -39 45
c-22 25 -62 65 -90 90 l-50 44 43 -45z"/>
<path d="M780 4946 l0 -1324 158 -52 c86 -29 160 -55 164 -59 4 -4 -143 -56
-327 -116 -184 -61 -334 -112 -335 -115 0 -3 78 -31 173 -63 l172 -57 -3
-1320 -2 -1320 1845 0 1845 0 0 1324 0 1325 -160 52 c-88 30 -156 56 -152 60
4 4 154 55 334 115 180 60 325 111 322 114 -3 3 -80 30 -172 61 l-167 56 -3
1321 -2 1322 -1845 0 -1845 0 0 -1324z m3680 1114 l0 -200 -799 0 -799 0 -22
61 c-21 54 -25 60 -48 57 -21 -2 -30 -13 -47 -58 l-21 -55 -964 -3 -965 -2 3
200 3 200 1829 0 1830 0 0 -200z m-1662 -198 c-28 -5 -30 0 -16 39 l11 33 12
-34 c11 -32 10 -35 -7 -38z m-1538 -20 c0 -4 -69 -76 -153 -160 l-153 -152
-77 0 -77 0 0 62 0 63 93 95 92 95 -91 -89 -91 -88 -2 90 -2 90 231 1 c126 0
230 -3 230 -7z m-115 -152 c-83 -83 -154 -150 -160 -150 -5 0 60 70 145 155
85 85 156 152 159 149 3 -2 -62 -72 -144 -154z m280 0 l-160 -160 -127 0 c-71
0 -128 3 -128 7 0 4 69 76 152 160 l153 153 135 0 135 0 -160 -160z m185 157
c0 -1 -71 -72 -157 -157 l-158 -155 155 158 c144 146 160 162 160 154z m134
-157 l-160 -160 -127 0 c-70 0 -127 3 -127 7 0 4 69 76 152 160 l153 153 135
0 135 0 -161 -160z m466 153 c0 -5 -69 -77 -153 -161 l-153 -152 -127 0 c-74
0 -128 4 -132 10 -4 6 -12 7 -18 4 -7 -4 57 63 141 148 l154 155 144 2 c79 1
144 -2 144 -6z m165 -153 l-160 -160 -127 0 c-71 0 -128 3 -128 7 0 4 69 76
152 160 l153 153 135 0 135 0 -160 -160z m324 108 c-40 -101 -59 -153 -59
-160 0 -5 10 -8 23 -8 19 0 26 10 42 55 l18 55 72 0 71 0 18 -55 c15 -50 20
-55 46 -55 l29 0 -44 106 c-25 59 -45 109 -45 110 0 2 138 4 307 4 l308 0
-112 -112 c-61 -62 -110 -121 -110 -130 0 -10 3 -18 6 -18 4 0 65 59 136 130
l130 130 135 0 135 0 -161 -160 -160 -160 -456 0 c-334 0 -457 3 -460 11 -3 9
-9 9 -25 0 -24 -12 -263 -16 -263 -3 0 4 65 72 145 152 79 79 142 146 139 149
-2 3 -75 -64 -162 -149 l-157 -155 155 158 155 157 82 0 83 0 -21 -52z m136
15 l14 -33 -56 0 c-49 0 -54 2 -48 18 4 9 10 25 12 35 4 13 14 17 35 15 23 -2
33 -11 43 -35z m560 -83 c-66 -66 -122 -120 -125 -120 -2 0 49 54 115 120 66
66 122 120 125 120 2 0 -49 -54 -115 -120z m715 113 c0 -5 -69 -77 -153 -161
l-153 -152 -127 0 c-74 0 -128 4 -132 10 -4 6 -12 7 -18 4 -7 -4 57 63 141
148 l154 155 144 2 c79 1 144 -2 144 -6z m165 -153 l-160 -160 -127 0 c-71 0
-128 3 -128 7 0 4 69 76 152 160 l153 153 135 0 135 0 -160 -160z m185 157 c0
-1 -71 -72 -157 -157 l-158 -155 155 158 c144 146 160 162 160 154z m-2365
-157 c-82 -82 -154 -150 -160 -150 -5 0 58 68 140 150 82 83 154 150 160 150
5 0 -58 -67 -140 -150z m1900 0 c-82 -82 -154 -150 -160 -150 -5 0 58 68 140
150 82 83 154 150 160 150 5 0 -58 -67 -140 -150z m448 -147 c-18 -14 -263
-19 -263 -6 0 4 62 70 138 146 l137 137 3 -132 c2 -116 0 -134 -15 -145z m17
-622 l0 -600 -797 2 -797 2 -25 63 c-22 56 -27 63 -50 60 -21 -2 -29 -14 -49
-65 l-23 -62 -960 0 -959 0 0 600 0 599 1830 0 1830 0 0 -599z m-1641 -593 c1
-5 -10 -8 -24 -8 -28 0 -30 4 -13 51 l11 33 13 -34 c7 -19 13 -38 13 -42z
m-1829 -21 c0 -1 -43 -45 -95 -97 l-95 -95 0 98 0 97 95 0 c52 0 95 -1 95 -3z
m30 0 c0 -1 -51 -52 -112 -112 l-113 -110 110 113 c102 104 115 117 115 109z
m140 -152 l-155 -155 -102 0 -103 0 0 32 c0 28 16 49 122 155 l123 123 135 0
135 0 -155 -155z m354 2 l-149 -152 155 153 155 152 135 0 135 0 -155 -155
-155 -156 -148 2 -149 2 149 151 148 151 -155 -152 -155 -153 -133 0 c-91 0
-132 3 -132 11 0 8 -6 7 -17 -2 -10 -7 51 58 136 144 l155 156 165 0 165 0
-150 -152z m456 150 c0 -1 -71 -72 -157 -157 l-158 -155 155 158 c144 146 160
162 160 154z m140 -152 l-155 -155 -135 0 -135 0 155 155 155 155 135 0 135 0
-155 -155z m600 148 c0 -5 -16 -48 -35 -97 -19 -49 -35 -93 -35 -98 0 -4 10
-8 23 -8 19 0 26 10 42 55 l18 55 72 0 71 0 18 -55 c15 -50 20 -55 46 -55 l29
0 -44 105 -44 105 346 0 347 -1 -154 -154 -155 -155 -470 0 -470 0 130 133
130 132 -135 -132 c-74 -73 -140 -133 -145 -133 -5 0 55 66 135 148 l145 147
-150 -147 -150 -148 -133 0 c-91 0 -132 3 -132 11 0 8 -6 7 -17 -2 -10 -7 51
58 136 143 l154 157 214 1 c117 0 213 -3 213 -7z m127 -23 l11 -30 -54 0 c-30
0 -54 2 -54 5 0 2 5 16 12 30 8 19 19 25 42 25 26 0 34 -5 43 -30z m1022 14
c-13 -16 -23 -19 -14 -4 14 23 -8 3 -145 -136 -80 -81 -139 -143 -131 -139 9
5 12 4 8 -2 -4 -6 -69 -11 -159 -12 l-153 -2 155 156 155 156 148 -2 c126 -1
146 -3 136 -15z m151 -139 l-155 -155 -135 0 -135 0 155 155 155 155 135 0
135 0 -155 -155z m180 152 c0 -1 -71 -72 -157 -157 l-158 -155 155 158 c144
146 160 162 160 154z m270 -9 c0 -7 -64 -77 -142 -155 l-143 -143 -135 0 -135
0 155 155 155 155 122 0 c91 0 123 -3 123 -12z m-620 -21 c0 -1 -60 -61 -132
-132 l-133 -130 130 133 c120 123 135 137 135 129z m619 -142 l2 -135 -123 0
-123 0 120 123 120 122 -128 -125 c-70 -69 -127 -120 -127 -115 0 8 249 265
256 265 1 0 3 -61 3 -135z m3 -332 l3 -186 165 -55 165 -55 -337 -111 c-186
-61 -337 -114 -338 -118 0 -3 76 -32 170 -63 l170 -57 0 -184 0 -184 -797 2
-797 3 -25 63 c-22 56 -27 63 -50 60 -21 -2 -29 -14 -49 -65 l-24 -63 -959 0
-959 0 0 188 0 188 -165 54 c-91 30 -161 57 -157 61 4 4 154 55 334 115 180
60 325 111 322 114 -3 3 -80 30 -170 60 l-165 55 -2 183 -2 182 1832 0 1833 0
2 -187z m-1643 -1005 c1 -5 -10 -8 -24 -8 -28 0 -30 4 -13 51 l11 33 13 -34
c7 -19 13 -38 13 -42z m-1739 -22 c0 0 -63 -64 -139 -140 l-139 -139 -1 133
c-1 73 -4 137 -7 142 -3 5 59 8 140 7 80 0 146 -2 146 -3z m310 0 c0 0 -71
-71 -157 -156 l-158 -155 150 153 c82 83 145 152 140 152 -6 0 -78 -67 -160
-150 l-150 -150 -127 0 c-71 0 -128 3 -128 7 0 4 66 74 148 156 l147 148 148
-2 c81 0 147 -2 147 -3z m140 -151 l-155 -155 -135 0 -135 0 155 155 155 155
135 0 135 0 -155 -155z m180 152 c0 -1 -71 -72 -157 -157 l-158 -155 155 158
c144 146 160 162 160 154z m169 -153 c-85 -85 -158 -154 -164 -154 -5 0 58 69
140 153 l150 152 -155 -152 -155 -153 -135 0 -134 0 149 154 150 154 154 0
154 0 -154 -154z m831 148 c0 -4 -16 -47 -35 -96 -19 -49 -35 -93 -35 -98 0
-4 10 -8 23 -8 19 0 26 10 42 55 l18 55 72 0 71 0 18 -55 c15 -50 20 -55 46
-55 l29 0 -44 105 -44 105 357 -1 356 0 -154 -154 -155 -155 -450 0 -450 0
100 100 c55 55 95 100 90 100 -5 0 -57 -46 -115 -102 l-105 -103 115 118 c63
64 110 117 105 117 -6 0 -62 -52 -125 -115 l-115 -115 -135 0 -135 0 150 150
c82 83 145 150 139 150 -5 0 -16 -6 -23 -12 -11 -11 -12 -10 -6 2 4 8 -62 -54
-146 -137 l-154 -153 -140 0 -140 0 155 155 154 154 333 0 c183 1 333 -3 333
-7z m127 -22 l11 -30 -54 0 c-30 0 -54 2 -54 5 0 2 5 16 12 30 8 19 19 25 42
25 26 0 34 -5 43 -30z m773 27 c0 -1 -71 -72 -157 -157 l-158 -155 155 158
c144 146 160 162 160 154z m169 -153 c-85 -85 -158 -154 -164 -154 -5 0 58 69
140 153 l150 152 -155 -152 -155 -153 -135 0 -135 0 155 155 155 156 149 -2
149 -1 -154 -154z m681 118 c0 -34 -10 -47 -117 -154 l-118 -118 -135 0 -135
0 150 150 c82 83 145 150 139 150 -5 0 -16 -6 -23 -12 -11 -11 -12 -10 -6 2 4
8 -62 -54 -146 -137 l-154 -153 -140 0 -140 0 155 155 154 155 258 -1 258 0 0
-37z m-2150 5 c0 -1 -64 -65 -142 -142 l-143 -140 140 143 c130 132 145 147
145 139z m1770 -136 c-74 -76 -139 -139 -145 -140 -5 0 53 62 130 139 77 77
142 140 144 140 3 0 -55 -62 -129 -139z m380 66 c0 -1 -48 -50 -107 -107
l-108 -105 105 108 c97 99 110 112 110 104z m0 -117 l0 -90 -92 0 -93 0 90 90
c49 50 91 90 92 90 2 0 3 -40 3 -90z m0 -700 l0 -600 -797 2 -797 3 -25 63
c-22 56 -27 63 -50 60 -21 -2 -29 -14 -49 -65 l-24 -63 -959 0 -959 0 -2 600
-3 600 1833 0 1832 0 0 -600z m-1641 -592 c1 -5 -10 -8 -24 -8 -28 0 -30 4
-13 51 l11 33 13 -34 c7 -19 13 -38 13 -42z m-1719 -20 c0 -2 -69 -72 -152
-156 l-153 -152 3 137 c2 76 8 143 13 149 7 8 6 14 -3 17 -7 2 56 5 140 6 83
1 152 0 152 -1z m-115 -148 c-82 -82 -145 -150 -139 -150 5 0 77 68 159 150
l149 151 150 -2 149 -1 -154 -154 c-85 -85 -158 -154 -164 -154 -5 0 58 69
140 153 l150 152 -156 -153 -155 -153 -148 2 -149 1 154 154 c85 85 156 154
159 154 3 0 -63 -67 -145 -150z m915 -5 l-155 -155 -135 0 -135 0 150 150 c82
83 145 150 139 150 -5 0 -16 -6 -23 -12 -11 -11 -12 -10 -6 2 4 8 -62 -54
-146 -137 l-154 -153 -140 0 -140 0 155 155 154 154 295 0 295 0 -154 -154z
m180 152 c0 -1 -71 -72 -157 -157 l-158 -155 155 158 c144 146 160 162 160
154z m169 -153 c-85 -85 -158 -154 -164 -154 -5 0 58 69 140 153 l150 152
-155 -152 -155 -153 -135 0 -135 0 155 155 155 156 149 -2 149 -1 -154 -154z
m461 148 c0 -4 -16 -47 -35 -96 -19 -49 -35 -93 -35 -98 0 -4 10 -8 23 -8 19
0 26 10 42 55 l18 55 72 0 71 0 18 -55 c15 -50 20 -55 46 -55 l29 0 -44 105
-44 106 241 -1 241 -1 -84 -87 -84 -87 91 88 90 88 154 -2 153 -1 -154 -154
c-85 -85 -158 -154 -164 -154 -5 0 58 69 140 153 l150 152 -155 -152 -155
-153 -455 0 -454 0 74 75 c41 41 68 75 61 75 -11 0 -11 3 0 18 7 9 -30 -25
-82 -75 l-94 -93 -140 0 -140 0 155 155 155 155 147 0 c82 0 148 -3 148 -8z
m127 -22 l11 -30 -54 0 c-30 0 -54 2 -54 5 0 2 5 16 12 30 8 19 19 25 42 25
26 0 34 -5 43 -30z m963 -125 l-155 -155 -135 0 -135 0 155 155 155 155 135 0
135 0 -155 -155z m180 152 c0 -1 -71 -72 -157 -157 l-158 -155 155 158 c144
146 160 162 160 154z m140 -152 l-155 -155 -135 0 -135 0 155 155 155 155 135
0 135 0 -155 -155z m35 3 l-150 -153 155 153 155 152 73 0 72 0 0 -68 0 -67
-88 -88 -88 -88 -150 1 -149 1 150 153 c83 84 154 154 160 154 5 1 -58 -67
-140 -150z m-2555 -17 c-74 -76 -139 -139 -145 -140 -5 0 53 62 130 139 77 77
142 140 144 140 3 0 -55 -62 -129 -139z m2859 -61 l2 -80 -68 0 -67 0 64 68
65 67 -70 -67 c-99 -95 -106 -85 -10 12 44 44 80 80 81 80 1 0 2 -36 3 -80z
m-1975 -4 c-38 -40 -73 -74 -79 -75 -5 0 24 33 65 74 41 41 77 75 79 75 2 0
-27 -33 -65 -74z m1976 -286 l0 -200 -1830 0 -1830 0 0 200 0 200 1830 0 1830
0 0 -200z"/>
<path d="M875 5768 l-70 -73 73 70 c39 38 72 71 72 72 0 8 -11 -2 -75 -69z"/>
<path d="M1780 5693 l-145 -148 148 145 c81 80 147 146 147 147 0 8 -16 -7
-150 -144z"/>
<path d="M3123 5761 c-28 -24 -29 -34 -3 -26 18 6 20 2 20 -49 0 -31 5 -56 10
-56 6 0 10 32 10 75 0 41 -3 75 -7 75 -5 -1 -18 -9 -30 -19z"/>
<path d="M2982 5751 c-25 -16 -10 -55 26 -65 17 -5 32 -15 32 -22 0 -17 -32
-18 -47 -3 -6 6 -17 9 -23 7 -20 -6 18 -38 45 -38 22 0 55 23 55 38 0 16 -17
30 -44 39 -17 5 -32 15 -34 21 -5 16 30 16 46 0 17 -17 28 -2 12 17 -14 16
-47 20 -68 6z"/>
<path d="M3680 5693 l-145 -148 148 145 c81 80 147 146 147 147 0 8 -16 -7
-150 -144z"/>
<path d="M1195 4158 l-140 -143 143 140 c132 130 147 145 139 145 -1 0 -65
-64 -142 -142z"/>
<path d="M2145 4158 l-140 -143 143 140 c132 130 147 145 139 145 -1 0 -65
-64 -142 -142z"/>
<path d="M3390 4163 l-135 -138 138 135 c75 74 137 136 137 137 0 8 -15 -7
-140 -134z"/>
<path d="M3100 4235 c-7 -9 -9 -19 -5 -23 4 -4 10 -1 12 6 6 17 42 15 49 -3 4
-9 -10 -32 -35 -60 -22 -24 -41 -47 -41 -50 0 -3 25 -5 55 -5 30 0 55 5 55 10
0 6 -19 10 -42 10 l-43 0 38 31 c38 31 48 64 25 87 -17 17 -53 15 -68 -3z"/>
<path d="M2982 4221 c-25 -16 -10 -55 26 -65 17 -5 32 -15 32 -22 0 -17 -32
-18 -47 -3 -6 6 -17 9 -23 7 -20 -6 18 -38 45 -38 22 0 55 23 55 38 0 16 -17
30 -44 39 -17 5 -32 15 -34 21 -5 16 30 16 46 0 17 -17 28 -2 12 17 -14 16
-47 20 -68 6z"/>
<path d="M925 2650 c-66 -66 -117 -120 -115 -120 3 0 59 54 125 120 66 66 117
120 115 120 -3 0 -59 -54 -125 -120z"/>
<path d="M3263 2747 c-2 -18 -1 -18 18 -2 23 22 24 24 1 22 -10 0 -19 -9 -19
-20z"/>
<path d="M3100 2705 c-17 -20 -5 -32 15 -15 16 14 45 7 45 -11 0 -6 -9 -13
-20 -16 -26 -7 -26 -23 -1 -23 28 0 36 -19 17 -38 -14 -14 -20 -15 -37 -4 -25
16 -37 8 -19 -13 29 -35 99 1 85 44 -3 12 -11 21 -16 21 -5 0 -4 9 3 19 24 39
-42 72 -72 36z"/>
<path d="M2982 2691 c-25 -16 -10 -55 26 -65 17 -5 32 -15 32 -22 0 -17 -32
-18 -47 -3 -6 6 -17 9 -23 7 -20 -6 18 -38 45 -38 22 0 55 23 55 38 0 16 -17
30 -44 39 -17 5 -32 15 -34 21 -5 16 30 16 46 0 17 -17 28 -2 12 17 -14 16
-47 20 -68 6z"/>
<path d="M3250 1173 l-65 -68 68 65 c62 60 72 70 64 70 -1 0 -32 -30 -67 -67z"/>
<path d="M3090 1180 c0 -5 5 -10 10 -10 6 0 10 5 10 10 0 6 -4 10 -10 10 -5 0
-10 -4 -10 -10z"/>
<path d="M2982 1161 c-25 -16 -10 -55 26 -65 17 -5 32 -15 32 -22 0 -17 -32
-18 -47 -3 -6 6 -17 9 -23 7 -20 -6 18 -38 45 -38 22 0 55 23 55 38 0 16 -17
30 -44 39 -17 5 -32 15 -34 21 -5 16 30 16 46 0 17 -17 28 -2 12 17 -14 16
-47 20 -68 6z"/>
<path d="M3090 1095 c0 -30 5 -55 10 -55 6 0 10 25 10 55 0 30 -4 55 -10 55
-5 0 -10 -25 -10 -55z"/>
<path d="M5610 3395 l0 -2875 1845 0 1845 0 0 2875 0 2875 -1845 0 -1845 0 0
-2875z m2165 2855 c16 -6 25 -6 25 1 0 6 43 9 118 7 115 -3 117 -3 115 -25 -2
-19 2 -23 26 -23 25 0 28 3 23 25 -4 24 -3 25 57 25 56 0 76 -10 51 -25 -17
-10 -11 -25 10 -25 17 0 19 5 14 25 l-6 25 541 0 541 0 0 -103 c0 -69 -4 -107
-12 -116 -10 -11 -10 -14 0 -18 16 -6 18 -1108 1 -1119 -8 -4 -7 -9 2 -14 10
-7 9 -14 -4 -34 -21 -31 -21 -36 -2 -36 13 0 15 -62 13 -522 l-3 -523 -115 -6
-115 -5 118 -2 117 -2 0 -1615 0 -1615 -1835 0 -1835 0 0 1615 0 1615 117 0
c64 0 114 2 111 6 -3 3 -56 5 -117 5 l-111 -1 0 1245 1 1245 1064 0 c661 0
1074 -4 1090 -10z m295 -15 c0 -8 -7 -15 -16 -15 -14 0 -14 3 -4 15 7 8 14 15
16 15 2 0 4 -7 4 -15z"/>
<path d="M8881 6225 c-24 -12 -24 -13 -3 -24 17 -9 22 -8 27 10 9 27 5 30 -24
14z"/>
<path d="M8620 6215 c-2 -5 -2 -14 -1 -18 1 -5 -3 -6 -8 -3 -5 4 -12 2 -15 -3
-7 -11 25 -24 35 -14 3 4 3 17 -1 28 -5 11 -9 16 -10 10z"/>
<path d="M5876 6177 c-16 -12 -16 -14 -2 -26 13 -11 17 -11 22 3 10 26 1 38
-20 23z"/>
<path d="M8672 6155 l-23 -30 26 -8 c34 -12 40 -4 29 35 l-9 32 -23 -29z m25
-31 c-9 -9 -28 6 -21 18 4 6 10 6 17 -1 6 -6 8 -13 4 -17z"/>
<path d="M9034 6164 c3 -8 2 -12 -3 -9 -5 3 -12 1 -16 -5 -4 -6 4 -10 18 -10
20 0 24 4 20 20 -3 11 -10 20 -15 20 -6 0 -7 -7 -4 -16z"/>
<path d="M6710 6130 c-11 -7 -12 -12 -3 -21 13 -13 33 -4 33 17 0 16 -9 18
-30 4z"/>
<path d="M7541 6081 c-11 -7 -10 -11 6 -20 22 -11 33 -6 33 16 0 15 -18 17
-39 4z"/>
<path d="M8390 6038 c-24 -9 -25 -10 -5 -24 17 -12 20 -12 28 1 13 24 4 33
-23 23z"/>
<path d="M5766 6032 c-4 -7 -4 -17 0 -24 4 -7 3 -8 -4 -4 -7 4 -12 2 -12 -3 0
-6 9 -11 20 -11 21 0 23 4 11 34 -5 14 -10 16 -15 8z"/>
<path d="M6190 5995 c-2 -5 -2 -14 -1 -18 1 -5 -3 -6 -8 -3 -5 4 -12 2 -15 -3
-3 -5 3 -11 14 -14 24 -6 30 2 19 28 -4 11 -8 16 -9 10z"/>
<path d="M5640 5975 c-11 -13 -10 -14 4 -9 10 4 16 1 16 -9 0 -9 -8 -18 -17
-20 -14 -4 -12 -5 5 -6 18 -1 22 4 22 29 0 33 -11 38 -30 15z"/>
<path d="M6604 5944 c3 -8 2 -12 -3 -9 -5 3 -12 1 -16 -5 -3 -5 3 -10 14 -10
14 0 21 6 21 20 0 11 -5 20 -11 20 -6 0 -8 -7 -5 -16z"/>
<path d="M6215 5941 c-19 -8 -19 -8 1 -19 23 -12 34 -7 34 15 0 14 -6 15 -35
4z"/>
<path d="M7018 5913 c-24 -26 -23 -33 5 -33 12 0 29 -4 37 -10 15 -9 30 4 30
28 0 9 -5 10 -19 2 -27 -14 -29 -13 -33 11 -3 21 -3 21 -20 2z"/>
<path d="M6257 5872 l-28 -29 28 -6 c35 -7 35 -6 31 33 l-3 32 -28 -30z m23
-7 c0 -8 -7 -15 -16 -15 -14 0 -14 3 -4 15 7 8 14 15 16 15 2 0 4 -7 4 -15z"/>
<path d="M7430 5870 c-7 -14 -7 -20 0 -20 5 0 10 6 11 13 0 6 4 3 9 -8 8 -18
9 -17 9 8 1 32 -14 36 -29 7z"/>
<path d="M6941 5848 c-38 -15 -60 -31 -83 -61 -27 -38 -29 -48 -26 -102 5 -76
32 -117 97 -149 42 -20 52 -21 92 -11 61 16 91 37 117 84 42 75 21 171 -48
217 -60 40 -89 44 -149 22z"/>
<path d="M6004 5841 c-137 -62 -120 -272 24 -310 23 -7 40 -16 37 -20 -6 -11
23 -23 36 -15 5 3 9 12 9 21 0 9 6 13 15 10 23 -10 103 75 111 118 10 53 -1
109 -26 146 -26 36 -90 69 -135 69 -16 0 -48 -9 -71 -19z"/>
<path d="M7840 5838 c-63 -32 -90 -77 -90 -148 0 -73 27 -116 93 -149 62 -31
122 -23 174 22 92 81 79 218 -27 274 -54 29 -94 29 -150 1z"/>
<path d="M8764 5841 c-107 -49 -133 -184 -50 -267 70 -70 174 -67 240 7 59 65
60 151 3 216 -55 63 -119 78 -193 44z"/>
<path d="M9093 5811 c-24 -21 -43 -46 -43 -56 0 -15 4 -14 35 5 l35 22 0 -111
c0 -92 3 -111 15 -111 13 0 15 23 15 145 0 80 -3 145 -7 145 -5 -1 -27 -18
-50 -39z"/>
<path d="M8272 5800 c-16 -27 -15 -30 8 -30 21 0 26 16 12 37 -6 9 -11 7 -20
-7z"/>
<path d="M5721 5751 c-11 -7 -10 -11 6 -20 22 -11 33 -6 33 16 0 15 -18 17
-39 4z"/>
<path d="M6570 5708 c-24 -9 -25 -10 -5 -24 17 -12 20 -12 28 1 13 24 4 33
-23 23z"/>
<path d="M7501 5676 c-19 -21 -20 -24 -6 -30 34 -13 45 -6 45 24 0 36 -9 38
-39 6z m29 -11 c0 -8 -7 -15 -15 -15 -16 0 -20 12 -8 23 11 12 23 8 23 -8z"/>
<path d="M7408 5663 c-10 -2 -18 -9 -18 -15 0 -5 7 -7 16 -4 8 3 12 2 9 -4 -3
-6 -1 -10 4 -10 6 0 11 2 11 4 0 2 3 11 6 20 6 16 3 17 -28 9z"/>
<path d="M8257 5619 c-9 -6 -23 -7 -30 -3 -6 4 -3 -2 7 -14 24 -27 33 -28 41
-1 9 26 4 30 -18 18z"/>
<path d="M8127 5582 l-28 -29 28 -6 c35 -7 35 -6 31 33 l-3 32 -28 -30z m23
-5 c0 -8 -7 -14 -15 -14 -11 0 -12 4 -4 14 6 7 13 13 15 13 2 0 4 -6 4 -13z"/>
<path d="M5841 5582 c-15 -28 -14 -32 9 -32 21 0 26 16 11 39 -7 11 -11 10
-20 -7z"/>
<path d="M6269 5553 c-1 -5 -1 -12 0 -16 1 -5 -3 -6 -8 -3 -5 4 -12 2 -16 -4
-4 -6 4 -10 18 -10 20 0 24 4 20 20 -5 20 -12 26 -14 13z"/>
<path d="M6684 5504 c3 -8 2 -12 -3 -9 -5 3 -12 1 -16 -5 -4 -6 4 -10 18 -10
20 0 24 4 20 20 -3 11 -10 20 -15 20 -6 0 -7 -7 -4 -16z"/>
<path d="M8751 5486 c-27 -29 -24 -39 11 -34 20 3 23 7 18 31 l-5 29 -24 -26z
m19 -11 c0 -8 -7 -15 -16 -15 -14 0 -14 3 -4 15 7 8 14 15 16 15 2 0 4 -7 4
-15z"/>
<path d="M7097 5472 c-22 -24 -21 -32 3 -32 15 0 20 7 20 25 0 30 -2 30 -23 7z"/>
<path d="M6913 5473 c-18 -7 -16 -20 4 -27 15 -6 32 8 33 27 0 8 -18 8 -37 0z"/>
<path d="M7524 5434 c3 -8 2 -12 -3 -9 -5 3 -12 1 -16 -5 -3 -5 3 -10 14 -10
14 0 21 6 21 20 0 11 -5 20 -11 20 -6 0 -8 -7 -5 -16z"/>
<path d="M7760 5428 c-24 -9 -25 -10 -5 -24 18 -13 20 -12 27 7 10 27 9 29
-22 17z"/>
<path d="M7925 5390 c-18 -20 -17 -20 8 -20 20 0 27 5 27 20 0 11 -4 20 -8 20
-5 0 -17 -9 -27 -20z"/>
<path d="M8598 5383 c-22 -6 -23 -22 -2 -30 15 -5 33 11 34 30 0 7 -4 7 -32 0z"/>
<path d="M8351 5361 c-15 -27 -14 -31 9 -31 13 0 20 7 20 19 0 28 -17 35 -29
12z"/>
<path d="M8765 5320 c-18 -20 -17 -20 15 -20 29 0 31 2 19 18 -7 9 -14 18 -15
20 0 1 -9 -7 -19 -18z"/>
<path d="M5712 5310 c-30 -25 -28 -37 8 -42 25 -4 30 -1 30 16 0 37 -13 46
-38 26z m28 -20 c0 -5 -7 -10 -16 -10 -8 0 -12 5 -9 10 3 6 10 10 16 10 5 0 9
-4 9 -10z"/>
<path d="M9197 5292 c-22 -24 -21 -32 2 -32 14 0 19 7 17 25 0 14 -1 25 -2 25
0 0 -8 -8 -17 -18z"/>
<path d="M6432 5286 c-21 -11 -22 -14 -7 -26 14 -12 18 -12 26 1 8 13 13 40 7
39 -2 -1 -13 -6 -26 -14z"/>
<path d="M7265 5236 c-18 -13 -18 -14 3 -25 13 -7 22 -8 22 -2 0 5 3 16 6 25
8 20 -6 21 -31 2z"/>
<path d="M6332 5207 c-25 -26 -20 -37 15 -37 19 0 23 5 23 30 0 36 -9 38 -38
7z m28 -12 c0 -8 -7 -15 -16 -15 -14 0 -14 3 -4 15 7 8 14 15 16 15 2 0 4 -7
4 -15z"/>
<path d="M8103 5193 c-7 -2 -13 -9 -13 -15 0 -6 7 -7 16 -4 8 3 12 2 9 -4 -3
-6 -2 -10 3 -10 5 0 12 9 15 20 5 20 -5 24 -30 13z"/>
<path d="M5921 5141 c-15 -27 -14 -31 9 -31 13 0 20 7 20 19 0 28 -17 35 -29
12z"/>
<path d="M8934 5139 c-3 -6 0 -15 7 -20 21 -13 26 -11 32 11 4 15 0 20 -13 20
-11 0 -22 -5 -26 -11z"/>
<path d="M6951 5106 l-22 -23 23 -7 c38 -10 43 -7 43 24 0 36 -14 38 -44 6z
m29 -6 c0 -13 -5 -18 -15 -14 -11 5 -12 9 -2 20 16 18 17 17 17 -6z"/>
<path d="M6335 5100 c-18 -20 -18 -20 8 -20 28 0 32 6 19 28 -7 9 -13 8 -27
-8z"/>
<path d="M5940 5098 c-24 -9 -25 -10 -5 -24 18 -13 20 -12 27 7 10 27 9 29
-22 17z"/>
<path d="M6760 5070 c0 -5 5 -10 10 -10 6 0 10 5 10 10 0 6 -4 10 -10 10 -5 0
-10 -4 -10 -10z"/>
<path d="M6744 5049 c-2 -3 8 -12 22 -20 22 -11 27 -11 34 1 6 8 10 18 10 22
0 9 -60 6 -66 -3z"/>
<path d="M7176 5031 c-17 -19 -17 -21 -2 -27 22 -8 28 -1 24 26 l-3 22 -19
-21z"/>
<path d="M7581 5016 c-28 -30 -24 -37 22 -42 28 -3 36 0 40 16 4 15 0 20 -13
20 -10 0 -20 7 -22 16 -2 13 -8 11 -27 -10z m19 -11 c0 -8 -4 -15 -10 -15 -5
0 -7 7 -4 15 4 8 8 15 10 15 2 0 4 -7 4 -15z"/>
<path d="M8015 4960 c-4 -6 -11 -8 -16 -5 -5 3 -6 -1 -3 -9 9 -24 44 -20 44 4
0 21 -15 27 -25 10z"/>
<path d="M8456 4958 c-13 -7 -16 -17 -12 -36 3 -15 3 -21 0 -14 -6 13 -24 7
-24 -9 0 -23 37 -5 52 26 19 37 13 49 -16 33z"/>
<path d="M8202 4917 c-29 -31 -28 -37 8 -37 27 0 30 3 30 30 0 36 -9 38 -38 7z
m28 -12 c0 -8 -7 -15 -15 -15 -16 0 -20 12 -8 23 11 12 23 8 23 -8z"/>
<path d="M8852 4888 c-18 -18 -15 -28 8 -28 13 0 20 7 20 20 0 23 -10 26 -28
8z"/>
<path d="M6283 4863 c-7 -2 -13 -9 -13 -15 0 -6 7 -7 16 -4 8 3 12 2 9 -4 -3
-6 -2 -10 3 -10 8 0 22 22 22 36 0 5 -21 4 -37 -3z"/>
<path d="M8820 4815 c-13 -14 -19 -25 -14 -25 5 0 19 -3 32 -6 19 -6 22 -3 22
25 0 38 -9 39 -40 6z m30 -5 c0 -13 -5 -18 -15 -14 -12 5 -13 10 -4 20 15 19
19 18 19 -6z"/>
<path d="M7114 4809 c-3 -6 0 -15 7 -20 21 -13 26 -11 32 11 4 15 0 20 -13 20
-11 0 -22 -5 -26 -11z"/>
<path d="M7966 4767 c-16 -12 -16 -14 -2 -26 13 -11 17 -11 22 3 10 26 1 38
-20 23z"/>
<path d="M8780 4719 c0 -13 29 -31 40 -24 20 12 10 33 -15 31 -14 0 -25 -4
-25 -7z"/>
<path d="M6000 4700 c-7 -13 -7 -20 0 -20 5 0 10 6 11 13 0 6 4 3 9 -8 8 -19
9 -19 9 2 1 30 -16 38 -29 13z"/>
<path d="M5805 4670 c3 -5 0 -7 -9 -4 -10 4 -15 0 -14 -13 0 -10 -1 -25 -3
-33 -3 -11 5 -15 26 -17 20 -1 23 0 8 4 -24 5 -30 18 -14 27 5 4 11 0 14 -6 2
-7 6 2 9 20 3 23 1 32 -9 32 -8 0 -11 -4 -8 -10z"/>
<path d="M6418 4666 c-20 -15 -14 -26 14 -26 10 0 18 6 18 14 0 22 -13 26 -32
12z"/>
<path d="M6842 4633 c-16 -29 -15 -33 8 -33 22 0 23 4 11 35 -8 19 -8 19 -19
-2z"/>
<path d="M6636 4627 c-16 -12 -16 -14 -3 -26 13 -10 17 -9 26 8 14 24 0 35
-23 18z"/>
<path d="M7270 4605 c-2 -5 -2 -14 -1 -18 1 -5 -3 -6 -8 -3 -5 4 -12 2 -15 -3
-3 -5 3 -11 14 -14 24 -6 30 2 19 28 -4 11 -8 16 -9 10z"/>
<path d="M7477 4583 c-21 -5 -18 -27 5 -31 9 -2 18 6 21 18 3 11 2 19 -1 19
-4 -1 -15 -3 -25 -6z"/>
<path d="M6411 4544 c-24 -31 -25 -29 12 -38 23 -6 27 -3 27 16 0 44 -15 52
-39 22z m29 -24 c0 -5 -7 -7 -15 -4 -8 4 -12 10 -9 15 6 11 24 2 24 -11z"/>
<path d="M7684 4554 c3 -8 2 -12 -3 -9 -5 3 -12 1 -16 -5 -3 -5 3 -10 14 -10
14 0 21 6 21 20 0 11 -5 20 -11 20 -6 0 -8 -7 -5 -16z"/>
<path d="M8107 4534 c-3 -3 -4 -11 -3 -17 2 -7 1 -9 -1 -4 -8 13 -23 8 -23 -8
0 -8 9 -15 20 -15 15 0 20 7 20 25 0 26 -2 29 -13 19z"/>
<path d="M8305 4531 c-19 -8 -19 -8 1 -19 23 -12 34 -7 34 15 0 14 -6 15 -35
4z"/>
<path d="M8521 4493 c0 -5 4 -17 9 -28 8 -18 9 -17 9 8 1 15 -3 27 -9 27 -5 0
-10 -3 -9 -7z"/>
<path d="M9151 4486 c-15 -8 -20 -16 -12 -20 6 -4 11 -2 11 4 0 7 7 10 15 6 9
-3 15 0 15 9 0 18 1 18 -29 1z"/>
<path d="M8505 4470 c-3 -5 -1 -10 4 -10 6 0 11 5 11 10 0 6 -2 10 -4 10 -3 0
-8 -4 -11 -10z"/>
<path d="M7032 4447 c-29 -31 -28 -37 8 -37 27 0 30 3 30 30 0 36 -9 38 -38 7z
m28 -12 c0 -8 -7 -15 -16 -15 -14 0 -14 3 -4 15 7 8 14 15 16 15 2 0 4 -7 4
-15z"/>
<path d="M8932 4448 c-18 -18 -15 -28 8 -28 13 0 20 7 20 20 0 23 -10 26 -28
8z"/>
<path d="M6147 4443 c-22 -6 -17 -27 6 -31 12 -2 17 3 17 17 0 12 -1 20 -2 20
-2 -1 -11 -3 -21 -6z"/>
<path d="M6981 4391 c-7 -5 -10 -14 -7 -20 11 -18 33 -13 39 9 5 21 -8 26 -32
11z"/>
<path d="M7651 4346 c-19 -21 -20 -24 -6 -30 34 -13 45 -6 45 24 0 36 -9 38
-39 6z m25 -23 c-10 -10 -19 5 -10 18 6 11 8 11 12 0 2 -7 1 -15 -2 -18z"/>
<path d="M7811 4341 c-11 -7 -10 -11 6 -20 22 -11 33 -6 33 16 0 15 -18 17
-39 4z"/>
<path d="M6028 4321 c-75 -24 -118 -85 -118 -168 0 -53 32 -113 72 -134 15 -8
17 -13 9 -19 -9 -5 -6 -9 8 -13 11 -2 23 -2 26 1 3 4 21 5 40 3 47 -4 117 30
146 70 34 48 35 150 1 195 -42 56 -122 84 -184 65z"/>
<path d="M8760 4308 c-83 -42 -117 -131 -82 -211 40 -91 139 -129 226 -88 130
64 125 241 -9 302 -53 24 -82 24 -135 -3z"/>
<path d="M5667 4302 c-22 -24 -21 -32 3 -32 15 0 20 7 20 25 0 30 -2 30 -23 7z"/>
<path d="M9094 4308 c-18 -8 -44 -46 -44 -63 0 -13 32 -3 50 15 38 38 90 20
90 -31 0 -21 -13 -39 -56 -76 -52 -45 -84 -88 -84 -113 0 -6 34 -10 90 -10 83
0 90 1 90 20 0 18 -7 20 -67 20 l-66 0 66 64 c59 56 67 68 67 100 0 69 -70
107 -136 74z"/>
<path d="M8661 4299 c-23 -9 -23 -10 -5 -23 16 -12 20 -12 27 0 13 23 4 32
-22 23z"/>
<path d="M8281 4256 c-27 -29 -27 -31 12 -40 29 -7 31 -2 18 42 l-6 24 -24
-26z m24 -16 c3 -5 -1 -10 -10 -10 -9 0 -13 5 -10 10 3 6 8 10 10 10 2 0 7 -4
10 -10z"/>
<path d="M5657 4253 c-21 -5 -18 -27 5 -31 9 -2 18 6 21 18 3 11 2 19 -1 19
-4 -1 -15 -3 -25 -6z"/>
<path d="M6494 4214 c-15 -22 -15 -27 -3 -35 16 -10 39 14 39 43 0 26 -17 22
-36 -8z"/>
<path d="M6921 4192 c-15 -28 -14 -32 9 -32 21 0 26 16 11 39 -7 11 -11 10
-20 -7z"/>
<path d="M7331 4155 c-24 -12 -24 -13 -5 -23 25 -13 43 -3 35 20 -5 14 -9 15
-30 3z"/>
<path d="M7764 4114 c3 -8 2 -12 -3 -9 -5 3 -12 1 -16 -5 -4 -6 4 -10 18 -10
20 0 24 4 20 20 -3 11 -10 20 -15 20 -6 0 -7 -7 -4 -16z"/>
<path d="M8164 4104 c-17 -14 -17 -15 -1 -10 15 5 16 2 7 -14 -14 -26 -13 -30
10 -30 16 0 20 7 20 35 0 39 -7 43 -36 19z"/>
<path d="M8604 4044 c3 -8 2 -12 -3 -9 -5 3 -12 1 -16 -5 -3 -5 3 -10 14 -10
14 0 21 6 21 20 0 11 -5 20 -11 20 -6 0 -8 -7 -5 -16z"/>
<path d="M5863 3971 l-23 -29 30 -4 c28 -4 30 -3 30 29 0 40 -8 41 -37 4z m27
-6 c0 -8 -7 -15 -16 -15 -14 0 -14 3 -4 15 7 8 14 15 16 15 2 0 4 -7 4 -15z"/>
<path d="M6841 3969 c-23 -9 -23 -10 -5 -23 16 -12 20 -12 27 0 13 23 4 32
-22 23z"/>
<path d="M7678 3923 c-23 -6 -23 -19 -1 -27 15 -6 32 8 33 27 0 7 -4 7 -32 0z"/>
<path d="M6492 3877 c-30 -31 -28 -37 11 -36 31 2 31 2 4 6 -24 4 -26 7 -16
19 10 12 14 12 20 2 6 -9 9 -6 9 10 0 27 -1 27 -28 -1z"/>
<path d="M5747 3862 c-22 -24 -21 -32 3 -32 15 0 20 7 20 25 0 30 -2 30 -23 7z"/>
<path d="M8512 3871 c-10 -6 -10 -11 3 -21 14 -12 18 -11 26 1 17 28 1 40 -29
20z"/>
<path d="M6160 3820 c-9 -17 -8 -20 10 -20 13 0 20 7 20 20 0 11 -4 20 -10 20
-5 0 -14 -9 -20 -20z"/>
<path d="M6580 3785 c-7 -9 -36 -15 -78 -18 -37 -2 1 -3 83 -3 83 0 122 1 88
3 -47 3 -63 8 -63 18 0 19 -14 19 -30 0z"/>
<path d="M7122 3788 c-8 -8 -58 -15 -135 -19 l-122 -5 148 -2 c145 -2 147 -2
137 18 -13 24 -12 24 -28 8z"/>
<path d="M6347 3778 c-16 -12 -15 -13 8 -13 14 0 25 6 25 13 0 6 -4 12 -8 12
-5 0 -16 -6 -25 -12z"/>
<path d="M6035 3769 c-22 -3 28 -6 110 -6 148 0 150 4 5 9 -41 2 -93 0 -115
-3z"/>
<path d="M7383 3763 c43 -2 110 -2 150 0 40 1 5 3 -78 3 -82 0 -115 -2 -72 -3z"/>
<path d="M7823 3763 c43 -2 110 -2 150 0 40 1 5 3 -78 3 -82 0 -115 -2 -72 -3z"/>
<path d="M8263 3763 c43 -2 110 -2 150 0 40 1 5 3 -78 3 -82 0 -115 -2 -72 -3z"/>
<path d="M8693 3763 c42 -2 112 -2 155 0 42 1 7 3 -78 3 -85 0 -120 -2 -77 -3z"/>
<path d="M6044 2790 c-81 -17 -134 -82 -134 -164 0 -58 19 -97 67 -133 31 -24
46 -28 98 -28 52 0 67 4 98 28 48 36 67 75 67 133 0 105 -96 185 -196 164z"/>
<path d="M8751 2772 c-92 -46 -113 -170 -44 -253 104 -123 304 -37 290 123 -5
54 -41 109 -87 133 -39 20 -117 19 -159 -3z"/>
<path d="M9086 2769 c-14 -11 -26 -27 -26 -35 0 -18 27 -18 46 1 20 19 58 19
74 0 18 -21 3 -52 -30 -64 -38 -13 -39 -31 -2 -31 34 0 52 -16 52 -46 0 -50
-64 -72 -97 -34 -23 27 -53 27 -46 0 8 -31 52 -60 90 -60 74 0 121 92 72 141
-15 15 -18 24 -10 32 12 12 15 66 3 83 -24 37 -87 43 -126 13z"/>
<path d="M5989 1237 c-53 -36 -79 -82 -79 -142 0 -94 71 -165 165 -165 94 0
165 71 165 165 0 60 -26 106 -79 142 -47 32 -125 32 -172 0z"/>
<path d="M6909 1237 c-53 -36 -79 -82 -79 -142 0 -164 204 -227 303 -93 13 18
22 48 25 85 3 49 0 64 -20 93 -55 80 -157 106 -229 57z"/>
<path d="M7829 1238 c-144 -83 -82 -308 85 -308 58 0 97 19 133 67 24 31 28
46 28 98 0 52 -4 67 -28 98 -15 20 -41 44 -57 52 -42 22 -118 19 -161 -7z"/>
<path d="M8765 1251 c-36 -15 -83 -72 -94 -114 -28 -113 58 -215 174 -205 65
5 111 37 136 92 23 51 24 84 3 137 -25 61 -83 99 -148 98 -28 0 -60 -4 -71 -8z"/>
<path d="M9120 1240 c0 -13 7 -20 20 -20 13 0 20 7 20 20 0 13 -7 20 -20 20
-13 0 -20 -7 -20 -20z"/>
<path d="M9120 1075 c0 -98 1 -105 20 -105 19 0 20 7 20 105 0 98 -1 105 -20
105 -19 0 -20 -7 -20 -105z"/>
<path d="M12270 5013 c0 -692 0 -1511 0 -1820 l0 -563 -360 0 -360 0 54 82
c526 816 656 1021 653 1024 -2 2 -235 -355 -517 -794 -283 -438 -666 -1033
-852 -1321 -186 -288 -338 -525 -338 -527 0 -2 389 -4 865 -4 l865 0 0 1336 0
1336 805 1249 c443 687 805 1251 805 1254 0 3 -364 5 -810 5 l-810 0 0 -1257z
m1600 1241 c0 -3 -79 -129 -177 -280 l-176 -274 -619 0 -618 0 0 280 0 280
795 0 c437 0 795 -3 795 -6z m-374 -579 c-8 -21 -944 -1475 -964 -1498 -14
-15 -31 -17 -131 -15 l-116 3 -3 750 c-1 413 0 756 3 763 3 9 135 12 611 12
542 0 606 -2 600 -15z m-986 -1532 c0 -6 -206 -329 -222 -348 -4 -5 -8 73 -8
173 l0 182 115 0 c63 0 115 -3 115 -7z m-240 -2283 l0 -760 -851 0 c-468 0
-849 4 -847 8 2 5 221 347 487 760 l485 752 363 0 363 0 0 -760z"/>
<path d="M9490 6050 c0 -38 -1 -40 -21 -30 -47 26 -91 -11 -91 -75 0 -64 44
-101 91 -75 14 7 21 7 21 0 0 -5 7 -10 15 -10 12 0 15 19 15 115 0 96 -3 115
-15 115 -11 0 -15 -11 -15 -40z m-15 -74 c20 -30 11 -73 -16 -81 -28 -9 -49
12 -49 49 0 56 38 74 65 32z"/>
<path d="M9596 6004 c-28 -25 -30 -48 -1 -24 13 11 15 4 15 -54 0 -37 4 -66
10 -66 6 0 10 35 10 85 0 47 -1 85 -2 85 -2 0 -16 -12 -32 -26z"/>
<path d="M13660 5800 c-28 -28 -30 -72 -4 -100 11 -13 10 -17 -6 -28 -14 -8
-20 -23 -20 -46 0 -62 76 -96 145 -64 28 13 30 19 14 35 -9 9 -18 8 -35 -4
-44 -29 -96 5 -78 51 4 9 19 20 35 23 32 6 40 33 11 33 -40 0 -57 55 -26 81
12 10 22 10 43 2 19 -7 34 -7 46 0 17 9 16 11 -6 23 -37 20 -96 17 -119 -6z"/>
<path d="M9502 5750 l-2 -44 -42 39 c-24 22 -3 -2 47 -53 49 -50 92 -92 94
-92 3 0 -16 21 -41 48 -41 41 -47 53 -51 97 l-3 50 -2 -45z"/>
<path d="M13993 5681 c-28 -24 -29 -34 -3 -26 18 6 20 2 20 -49 0 -31 5 -56
10 -56 6 0 10 32 10 75 0 41 -3 75 -7 75 -5 -1 -18 -9 -30 -19z"/>
<path d="M13852 5671 c-25 -16 -10 -55 26 -65 17 -5 32 -15 32 -22 0 -17 -32
-18 -47 -3 -6 6 -17 9 -23 7 -20 -6 18 -38 45 -38 22 0 55 23 55 38 0 16 -17
30 -44 39 -17 5 -32 15 -34 21 -5 16 30 16 46 0 17 -17 28 -2 12 17 -14 16
-47 20 -68 6z"/>
<path d="M9680 5290 c0 -38 -1 -40 -21 -30 -47 26 -91 -11 -91 -75 0 -64 44
-101 91 -75 14 7 21 7 21 0 0 -5 7 -10 15 -10 12 0 15 19 15 115 0 96 -3 115
-15 115 -11 0 -15 -11 -15 -40z m-15 -74 c20 -30 11 -73 -16 -81 -28 -9 -49
12 -49 49 0 56 38 74 65 32z"/>
<path d="M9762 5258 c-14 -14 -16 -38 -3 -38 5 0 12 7 15 16 8 21 50 14 54 -9
2 -11 -15 -38 -42 -67 -25 -27 -46 -52 -46 -55 0 -3 25 -5 55 -5 30 0 55 5 55
10 0 6 -17 10 -37 10 l-37 0 37 38 c54 56 48 112 -13 112 -14 0 -31 -5 -38
-12z"/>
<path d="M11873 5066 c-25 -21 -28 -31 -28 -81 0 -50 3 -60 28 -81 37 -31 81
-31 112 1 27 26 33 55 11 55 -7 0 -21 -11 -30 -25 -33 -50 -86 -18 -86 52 0
63 54 98 82 53 13 -21 48 -28 48 -10 0 6 -11 22 -25 35 -31 32 -75 32 -112 1z"/>
<path d="M9712 4605 l-2 -429 -38 37 c-21 20 -42 37 -47 37 -5 0 31 -40 80
-90 49 -49 94 -90 99 -90 6 0 -11 21 -37 48 l-47 47 -3 435 -2 435 -3 -430z"/>
<path d="M11932 4295 l-2 -509 -40 39 c-22 21 -40 35 -40 29 0 -12 162 -174
175 -174 5 0 -12 21 -38 48 l-47 48 -3 514 -2 515 -3 -510z"/>
<path d="M9880 4520 c0 -38 -1 -40 -21 -30 -47 26 -91 -11 -91 -75 0 -64 44
-101 91 -75 14 7 21 7 21 0 0 -5 7 -10 15 -10 12 0 15 19 15 115 0 96 -3 115
-15 115 -11 0 -15 -11 -15 -40z m-15 -74 c20 -30 11 -73 -16 -81 -28 -9 -49
12 -49 49 0 56 38 74 65 32z"/>
<path d="M9960 4485 c-16 -19 -5 -34 12 -17 17 17 45 15 52 -3 3 -9 -3 -20
-14 -27 -25 -16 -25 -24 1 -31 15 -4 20 -12 17 -29 -4 -29 -37 -36 -55 -12
-14 20 -29 13 -20 -10 7 -18 50 -31 72 -22 8 3 20 17 27 31 9 20 8 28 -6 44
-11 12 -14 21 -7 26 28 17 -4 65 -43 65 -13 0 -29 -7 -36 -15z"/>
<path d="M12730 4280 c-28 -28 -30 -72 -4 -100 11 -13 10 -17 -6 -28 -14 -8
-20 -23 -20 -46 0 -62 76 -96 145 -64 28 13 30 19 14 35 -9 9 -18 8 -35 -4
-44 -29 -96 5 -78 51 4 9 19 20 35 23 32 6 40 33 11 33 -40 0 -57 55 -26 81
12 10 22 10 43 2 19 -7 34 -7 46 0 17 9 16 11 -6 23 -37 20 -96 17 -119 -6z"/>
<path d="M9912 3455 l-2 -809 -40 39 c-22 21 -40 35 -40 29 0 -12 162 -174
175 -174 5 0 -12 22 -38 48 l-47 48 -3 814 -2 815 -3 -810z"/>
<path d="M13040 4165 c-7 -9 -9 -19 -5 -23 4 -4 10 -1 12 6 6 17 42 15 49 -3
4 -9 -10 -32 -35 -60 -22 -24 -41 -47 -41 -50 0 -3 25 -5 55 -5 30 0 55 5 55
10 0 6 -19 10 -42 10 l-43 0 38 31 c38 31 48 64 25 87 -17 17 -53 15 -68 -3z"/>
<path d="M12922 4151 c-25 -16 -10 -55 26 -65 17 -5 32 -15 32 -22 0 -17 -32
-18 -47 -3 -6 6 -17 9 -23 7 -20 -6 18 -38 45 -38 22 0 55 23 55 38 0 16 -17
30 -44 39 -17 5 -32 15 -34 21 -5 16 30 16 46 0 17 -17 28 -2 12 17 -14 16
-47 20 -68 6z"/>
<path d="M10120 3760 c0 -38 -1 -40 -21 -30 -47 26 -91 -11 -91 -75 0 -64 44
-101 91 -75 14 7 21 7 21 0 0 -5 7 -10 15 -10 12 0 15 19 15 115 0 96 -3 115
-15 115 -11 0 -15 -11 -15 -40z m-15 -74 c20 -30 11 -73 -16 -81 -28 -9 -49
12 -49 49 0 56 38 74 65 32z"/>
<path d="M10190 3730 c0 -5 5 -10 10 -10 6 0 10 5 10 10 0 6 -4 10 -10 10 -5
0 -10 -4 -10 -10z"/>
<path d="M10190 3635 c0 -37 4 -65 10 -65 6 0 10 28 10 65 0 37 -4 65 -10 65
-6 0 -10 -28 -10 -65z"/>
<path d="M5280 3395 c0 -138 1 -145 20 -145 18 0 20 7 20 74 0 79 13 106 51
106 26 0 39 -37 39 -116 0 -51 3 -64 15 -64 13 0 15 15 13 92 -3 89 -4 93 -30
107 -22 13 -33 13 -58 4 l-30 -11 0 49 c0 42 -3 49 -20 49 -19 0 -20 -7 -20
-145z"/>
<path d="M10112 2300 l-2 -1194 -42 39 c-24 22 -5 0 42 -48 46 -48 87 -87 89
-87 3 0 -13 18 -34 40 l-40 41 -5 1202 -5 1202 -3 -1195z"/>
<path d="M5372 1860 l-2 -1324 -40 39 c-22 21 -42 37 -45 34 -2 -3 36 -45 85
-94 50 -49 90 -85 90 -79 0 5 -18 28 -40 49 l-40 39 -3 1330 -2 1331 -3 -1325z"/>
<path d="M10940 2850 c-28 -28 -30 -72 -4 -100 11 -13 10 -17 -6 -28 -14 -8
-20 -23 -20 -46 0 -62 76 -96 145 -64 28 13 30 19 14 35 -9 9 -18 8 -35 -4
-44 -29 -96 5 -78 51 4 9 19 20 35 23 32 6 40 33 11 33 -40 0 -57 55 -26 81
12 10 22 10 43 2 19 -7 34 -7 46 0 17 9 16 11 -6 23 -37 20 -96 17 -119 -6z"/>
<path d="M11250 2735 c-17 -20 -5 -32 15 -15 16 14 45 7 45 -11 0 -6 -9 -13
-20 -16 -26 -7 -26 -23 -1 -23 28 0 36 -19 17 -38 -14 -14 -20 -15 -37 -4 -25
16 -37 8 -19 -13 29 -35 99 1 85 44 -3 12 -11 21 -16 21 -5 0 -4 9 3 19 24 39
-42 72 -72 36z"/>
<path d="M11132 2721 c-25 -16 -10 -55 26 -65 17 -5 32 -15 32 -22 0 -17 -32
-18 -47 -3 -6 6 -17 9 -23 7 -20 -6 18 -38 45 -38 22 0 55 23 55 38 0 16 -17
30 -44 39 -17 5 -32 15 -34 21 -5 16 30 16 46 0 17 -17 28 -2 12 17 -14 16
-47 20 -68 6z"/>
<path d="M10350 1040 c-28 -28 -30 -72 -4 -100 11 -13 10 -17 -6 -28 -14 -8
-20 -23 -20 -46 0 -62 76 -96 145 -64 28 13 30 19 14 35 -9 9 -18 8 -35 -4
-44 -29 -96 5 -78 51 4 9 19 20 35 23 32 6 40 33 11 33 -40 0 -57 55 -26 81
12 10 22 10 43 2 19 -7 34 -7 46 0 17 9 16 11 -6 23 -37 20 -96 17 -119 -6z"/>
<path d="M10640 930 c0 -5 5 -10 10 -10 6 0 10 5 10 10 0 6 -4 10 -10 10 -5 0
-10 -4 -10 -10z"/>
<path d="M10532 911 c-25 -16 -10 -55 26 -65 17 -5 32 -15 32 -22 0 -17 -32
-18 -47 -3 -6 6 -17 9 -23 7 -20 -6 18 -38 45 -38 22 0 55 23 55 38 0 16 -17
30 -44 39 -17 5 -32 15 -34 21 -5 16 30 16 46 0 17 -17 28 -2 12 17 -14 16
-47 20 -68 6z"/>
<path d="M10640 845 c0 -30 5 -55 10 -55 6 0 10 25 10 55 0 30 -4 55 -10 55
-5 0 -10 -25 -10 -55z"/>
</g>
</svg>
