<?xml version="1.0" standalone="no"?>
<!DOCTYPE svg PUBLIC "-//W3C//DTD SVG 20010904//EN"
 "http://www.w3.org/TR/2001/REC-SVG-20010904/DTD/svg10.dtd">
<svg version="1.0" xmlns="http://www.w3.org/2000/svg"
 width="874.000000pt" height="804.000000pt" viewBox="0 0 874.000000 804.000000"
 preserveAspectRatio="xMidYMid meet">

<g transform="translate(0.000000,804.000000) scale(0.100000,-0.100000)"
fill="#000000" stroke="none">
<path d="M1423 7902 l67 -68 2 -749 3 -750 2 745 3 744 60 -59 c33 -33 60 -55
60 -50 0 13 -242 255 -255 255 -5 0 21 -30 58 -68z"/>
<path d="M6078 7907 l62 -63 2 -909 3 -910 2 905 3 904 63 -59 c34 -33 6 -3
-63 68 -69 70 -127 127 -130 127 -2 0 24 -28 58 -63z"/>
<path d="M1990 7778 c0 -40 0 -858 0 -1818 0 -960 0 -2619 0 -3687 l0 -1943
770 0 770 0 0 -81 c0 -62 3 -80 13 -77 24 6 246 153 246 163 1 8 -223 163
-250 173 -5 2 -9 -35 -9 -82 l0 -86 -765 0 -765 0 0 1110 0 1110 763 -2 762
-3 3 -82 c2 -46 6 -83 10 -83 11 0 252 162 252 170 0 8 -241 170 -253 170 -4
0 -7 -36 -7 -80 l0 -80 -765 0 -765 0 0 824 0 823 98 58 c279 166 478 298 647
430 l96 75 477 2 477 3 -468 5 -467 5 96 95 c239 235 392 468 518 791 40 103
108 314 118 364 3 18 13 21 103 26 l100 5 -98 2 c-89 2 -98 4 -93 20 43 144
84 459 93 720 l6 182 46 2 46 1 -44 6 c-53 7 -47 -18 -55 261 -5 197 -23 516
-32 558 l-4 22 -835 0 -835 0 0 -72z m1664 40 c5 -26 13 -148 21 -328 4 -69 8
-136 11 -149 3 -15 -2 -28 -13 -38 -15 -12 -16 -14 -1 -9 14 4 16 -10 17 -140
l2 -144 -342 0 c-336 0 -341 0 -336 20 6 23 0 24 -38 10 -14 -5 -23 -14 -20
-20 4 -7 -115 -10 -349 -10 l-356 1 0 85 c0 72 -2 85 -15 81 -8 -4 -62 -38
-119 -77 -58 -38 -108 -70 -111 -70 -3 0 -5 182 -5 405 l1 405 824 0 825 0 4
-22z m-654 -788 c0 -5 -8 -10 -17 -10 -15 0 -16 2 -3 10 19 12 20 12 20 0z
m689 -153 c-4 -228 -37 -521 -80 -709 l-21 -88 -133 0 c-91 0 -135 4 -137 11
-3 9 -9 9 -25 0 -15 -8 -139 -11 -416 -11 l-395 0 -6 26 -7 26 -20 -26 c-19
-24 -26 -26 -110 -26 l-89 0 0 85 c0 47 -2 85 -6 85 -3 0 -32 -18 -65 -41 -33
-22 -68 -42 -77 -44 -36 -7 -73 -25 -68 -34 3 -4 -3 -16 -14 -26 -20 -18 -20
-15 -20 434 0 357 3 451 13 445 6 -4 58 -38 114 -76 56 -37 107 -68 113 -68 6
0 10 32 10 80 l0 80 720 0 721 0 -2 -123z m-1614 -737 c-3 -5 -12 -10 -18 -10
-7 0 -6 4 3 10 19 12 23 12 15 0z m395 -50 c0 -5 -7 -10 -16 -10 -8 0 -12 5
-9 10 3 6 10 10 16 10 5 0 9 -4 9 -10z m590 -29 c0 -5 -7 -14 -15 -21 -23 -19
-18 -30 16 -30 29 0 30 2 24 30 l-7 31 113 -2 c63 -1 105 -5 94 -9 -14 -5 -16
-8 -5 -15 8 -5 18 -2 25 9 11 14 31 16 147 14 l135 -3 -30 -107 c-17 -59 -34
-105 -38 -102 -5 3 -6 -1 -3 -9 13 -35 -155 -411 -254 -567 -90 -143 -329
-423 -356 -418 -6 1 -23 -1 -38 -5 -29 -8 -36 -21 -18 -32 8 -5 7 -11 -1 -21
-7 -9 -32 -14 -70 -14 -58 0 -60 1 -65 30 -8 38 -14 38 -39 0 l-20 -30 -202 0
-203 0 0 78 c0 43 -3 81 -6 85 -3 3 -36 -14 -73 -39 -50 -34 -67 -41 -69 -29
-2 8 -7 15 -10 15 -9 0 -37 -43 -34 -52 1 -4 -12 -16 -28 -28 l-30 -21 0 631
0 630 120 -80 c66 -44 122 -80 125 -80 3 0 5 38 5 84 l0 85 405 1 c229 0 405
-4 405 -9z m20 -32 c0 -5 -7 -9 -15 -9 -15 0 -20 12 -9 23 8 8 24 -1 24 -14z
m-998 -1171 c-7 -7 -12 -8 -12 -2 0 14 12 26 19 19 2 -3 -1 -11 -7 -17z m803
-18 c-3 -5 -11 -10 -16 -10 -6 0 -7 5 -4 10 3 6 11 10 16 10 6 0 7 -4 4 -10z
m-189 -37 c-10 -10 -19 5 -10 18 6 11 8 11 12 0 2 -7 1 -15 -2 -18z m79 -59
l-40 -36 -3 26 c-4 33 -9 33 -49 -6 -32 -31 -33 -32 -12 -43 19 -10 11 -18
-90 -89 -112 -78 -336 -221 -493 -314 l-87 -51 -1 270 0 269 120 -80 c66 -44
122 -80 125 -80 3 0 5 38 5 85 l0 85 283 0 282 -1 -40 -35z m-55 -24 c0 -22
-5 -30 -18 -30 -30 0 -34 12 -10 37 27 29 28 29 28 -7z"/>
<path d="M3188 7658 c-34 -12 -35 -23 -7 -39 17 -9 23 -8 30 2 8 13 13 50 7
48 -2 0 -15 -5 -30 -11z m16 -23 c-4 -8 -10 -12 -15 -9 -11 6 -2 24 11 24 5 0
7 -7 4 -15z"/>
<path d="M2344 7625 c-15 -20 -25 -37 -23 -39 2 -2 21 -6 43 -9 l38 -6 -6 31
c-3 17 -6 37 -6 44 0 24 -18 15 -46 -21z m45 -27 c1 -5 -13 -8 -31 -8 l-31 0
23 25 c22 24 25 24 31 8 4 -10 8 -21 8 -25z"/>
<path d="M3250 7485 c-18 -19 -32 -36 -29 -38 2 -2 21 -7 42 -10 l37 -6 0 45
c0 24 -4 44 -8 44 -4 0 -23 -16 -42 -35z m40 -10 c0 -20 -5 -25 -25 -25 -29 0
-31 7 -8 32 22 25 33 23 33 -7z"/>
<path d="M2208 7375 c-24 -32 -23 -35 10 -35 26 0 28 3 24 30 -5 36 -11 37
-34 5z m18 -22 c-10 -10 -19 5 -10 18 6 11 8 11 12 0 2 -7 1 -15 -2 -18z"/>
<path d="M2461 7379 c-23 -9 -24 -10 -5 -24 22 -16 44 -19 44 -6 0 5 3 16 6
25 7 18 -8 20 -45 5z m33 -14 c-7 -17 -20 -20 -28 -6 -4 5 0 12 6 14 23 9 28
7 22 -8z"/>
<path d="M2812 7319 l-24 -29 31 0 c26 0 31 4 31 24 0 36 -12 37 -38 5z m24
-16 c-10 -10 -19 5 -10 18 6 11 8 11 12 0 2 -7 1 -15 -2 -18z"/>
<path d="M3421 7266 c-24 -25 -19 -36 16 -36 18 0 23 6 23 24 0 35 -14 39 -39
12z m29 -11 c0 -8 -4 -15 -10 -15 -5 0 -10 7 -10 15 0 8 5 15 10 15 6 0 10 -7
10 -15z"/>
<path d="M2270 6769 c-34 -14 -36 -17 -14 -34 27 -20 31 -19 43 15 11 32 9 34
-29 19z m20 -19 c0 -5 -7 -10 -15 -10 -8 0 -15 5 -15 10 0 6 7 10 15 10 8 0
15 -4 15 -10z"/>
<path d="M2327 6742 c-24 -26 -21 -42 8 -42 21 0 25 5 25 30 0 34 -10 38 -33
12z m23 -17 c0 -8 -7 -15 -16 -15 -14 0 -14 3 -4 15 7 8 14 15 16 15 2 0 4 -7
4 -15z"/>
<path d="M2931 6681 l-22 -31 30 0 c32 0 41 19 22 48 -6 11 -14 6 -30 -17z
m29 -6 c0 -8 -7 -15 -16 -15 -14 0 -14 3 -4 15 7 8 14 15 16 15 2 0 4 -7 4
-15z"/>
<path d="M3483 6700 c-29 -12 -29 -21 -2 -38 25 -16 25 -15 34 21 8 29 3 31
-32 17z m19 -22 c-6 -6 -15 -8 -19 -4 -4 4 -1 11 7 16 19 12 27 3 12 -12z"/>
<path d="M2460 6665 c-18 -19 -31 -37 -28 -40 3 -3 22 -9 42 -12 34 -5 36 -4
35 23 0 16 -4 37 -7 47 -7 15 -12 13 -42 -18z m40 -26 c0 -12 -7 -19 -18 -19
-28 0 -34 11 -16 31 19 21 34 16 34 -12z"/>
<path d="M3542 6633 l-22 -31 28 -5 c35 -7 37 -4 26 35 l-10 32 -22 -31z m23
-13 c3 -5 -1 -10 -10 -10 -9 0 -13 5 -10 10 3 6 8 10 10 10 2 0 7 -4 10 -10z"/>
<path d="M3362 6520 c-32 -37 -32 -38 -10 -44 56 -14 63 -9 60 39 -2 25 -7 45
-11 44 -3 0 -21 -18 -39 -39z m38 -10 c0 -22 -5 -30 -18 -30 -30 0 -34 12 -10
37 27 29 28 29 28 -7z"/>
<path d="M2766 6426 l-29 -13 27 -18 c31 -20 32 -20 41 18 8 30 4 31 -39 13z
m28 -21 c-4 -8 -10 -12 -15 -9 -14 8 -10 24 6 24 9 0 12 -6 9 -15z"/>
<path d="M2555 5807 c-17 -13 -17 -15 6 -31 18 -12 25 -13 28 -4 2 7 8 21 13
31 7 13 5 17 -10 17 -10 0 -26 -6 -37 -13z m30 -16 c-3 -6 -11 -8 -17 -5 -6 4
-5 9 3 15 16 10 23 4 14 -10z"/>
<path d="M2570 5695 c-18 -19 -32 -36 -29 -38 2 -2 21 -7 42 -10 l37 -6 0 45
c0 24 -4 44 -8 44 -4 0 -23 -16 -42 -35z m40 -14 c0 -25 -3 -28 -25 -24 -24 5
-24 6 -7 29 23 31 32 30 32 -5z"/>
<path d="M2562 5467 c-29 -31 -28 -37 8 -37 28 0 30 2 24 28 -9 36 -7 35 -32
9z m23 -17 c3 -5 -1 -10 -10 -10 -9 0 -13 5 -10 10 3 6 8 10 10 10 2 0 7 -4
10 -10z"/>
<path d="M3062 5466 l-24 -13 26 -17 c26 -16 26 -16 36 9 6 15 10 28 10 31 0
8 -25 3 -48 -10z m32 -11 c-7 -17 -20 -20 -29 -6 -3 5 3 12 12 14 10 3 19 5
20 6 1 0 0 -6 -3 -14z"/>
<path d="M3166 5408 c-17 -24 -7 -38 28 -38 12 0 16 5 12 16 -3 9 -6 22 -6 30
0 21 -17 17 -34 -8z m24 -14 c0 -8 -5 -12 -10 -9 -6 4 -8 11 -5 16 9 14 15 11
15 -7z"/>
<path d="M2356 5197 l-30 -13 24 -17 c26 -18 34 -14 45 21 7 25 2 26 -39 9z
m24 -17 c0 -5 -4 -10 -10 -10 -5 0 -10 5 -10 10 0 6 5 10 10 10 6 0 10 -4 10
-10z"/>
<path d="M2151 4583 c-32 -13 -32 -15 -15 -28 28 -21 43 -18 50 10 8 33 6 35
-35 18z m23 -17 c-3 -8 -12 -12 -21 -9 -12 5 -12 7 -1 14 20 13 28 11 22 -5z"/>
<path d="M4072 7288 c-18 -6 -46 -26 -62 -45 -24 -27 -30 -43 -30 -81 0 -82
30 -106 181 -147 109 -29 131 -45 127 -93 -5 -53 -43 -77 -122 -77 -76 0 -111
20 -135 76 -13 32 -21 39 -43 39 -32 0 -36 -21 -14 -73 39 -95 191 -138 296
-84 54 27 80 61 87 114 11 84 -38 128 -180 164 -48 12 -99 30 -112 41 -42 33
-29 88 26 107 75 26 157 4 178 -48 11 -25 19 -31 42 -31 23 0 29 5 29 20 0 35
-28 77 -66 100 -42 27 -149 36 -202 18z"/>
<path d="M4463 6980 c-37 -33 -45 -57 -14 -40 11 5 22 10 25 10 3 0 6 -36 6
-80 0 -64 3 -80 15 -80 12 0 15 19 15 110 0 61 -3 110 -7 110 -5 0 -23 -14
-40 -30z"/>
<path d="M4130 6361 c-82 -27 -132 -77 -156 -157 -30 -102 -6 -221 60 -290
103 -106 294 -79 355 50 11 25 21 48 21 51 0 2 -14 8 -32 13 -30 8 -33 6 -53
-32 -41 -81 -123 -106 -204 -64 -62 32 -85 80 -86 178 0 134 50 195 162 195
55 0 65 -3 92 -29 17 -16 34 -38 37 -49 5 -15 12 -18 37 -13 17 3 32 8 34 10
12 11 -42 89 -77 112 -42 28 -141 41 -190 25z"/>
<path d="M720 6205 c0 -6 27 -37 60 -70 l60 -59 2 -291 3 -290 2 285 3 284 60
-59 c33 -32 62 -57 64 -54 3 3 -53 63 -124 134 -72 71 -130 125 -130 120z"/>
<path d="M1431 6133 c-91 -45 -95 -238 -6 -293 65 -40 158 -15 185 50 11 27
11 33 -1 41 -19 12 -39 11 -39 -1 0 -20 -49 -60 -73 -60 -41 0 -75 35 -82 85
-18 115 67 187 135 115 30 -32 37 -35 58 -21 12 7 11 14 -2 40 -30 58 -107 77
-175 44z"/>
<path d="M5850 5760 c0 -160 1 -170 19 -170 17 0 19 10 23 96 3 102 14 124 63
124 38 0 45 -19 45 -122 0 -98 0 -98 25 -98 25 0 25 1 25 78 -1 94 -12 149
-37 167 -24 19 -73 19 -101 -1 -22 -15 -22 -15 -22 40 0 49 -2 56 -20 56 -19
0 -20 -7 -20 -170z"/>
<path d="M6126 5767 c-25 -89 -46 -166 -46 -170 0 -15 29 -6 34 11 40 137 86
303 86 311 0 6 -6 11 -14 11 -9 0 -29 -55 -60 -163z"/>
<path d="M6262 5905 c-22 -18 -32 -35 -30 -49 4 -28 34 -33 41 -7 12 47 98 52
118 7 16 -34 -8 -72 -81 -136 -56 -49 -90 -94 -90 -120 0 -6 40 -10 110 -10
103 0 110 1 110 20 0 18 -7 20 -82 20 l-83 1 63 57 c76 69 102 107 102 149 0
50 -36 85 -96 90 -44 5 -54 2 -82 -22z"/>
<path d="M1492 4980 l-2 -744 -60 59 c-33 33 -60 55 -60 50 0 -13 242 -255
255 -255 5 0 -21 30 -58 68 l-67 67 -3 750 -2 750 -3 -745z"/>
<path d="M6140 4585 l-5 -900 -392 -3 -393 -2 0 80 c0 48 -4 80 -10 80 -14 0
-250 -158 -250 -168 0 -6 230 -162 251 -170 5 -2 9 35 9 82 l0 86 396 0 396 0
66 -62 67 -62 -60 62 -59 62 369 3 370 2 -372 3 -373 2 -2 903 -3 902 -5 -900z"/>
<path d="M911 5283 c-91 -45 -95 -238 -6 -293 65 -40 158 -15 185 50 11 27 11
33 -1 41 -19 12 -39 11 -39 -1 0 -20 -49 -60 -73 -60 -41 0 -75 35 -82 85 -18
115 67 187 135 115 30 -32 37 -35 58 -21 12 7 11 14 -2 40 -30 58 -107 77
-175 44z"/>
<path d="M600 5221 c0 -5 18 -58 40 -118 27 -75 40 -124 40 -160 0 -50 2 -53
25 -53 23 0 25 3 25 49 0 42 22 112 85 274 6 13 2 17 -17 17 -20 0 -27 -11
-53 -86 -16 -47 -33 -87 -36 -90 -3 -2 -19 36 -36 84 -24 69 -34 88 -52 90
-11 2 -21 -1 -21 -7z"/>
<path d="M4032 5108 c-18 -6 -46 -26 -62 -45 -24 -27 -30 -43 -30 -81 0 -82
30 -106 181 -147 109 -29 131 -45 127 -93 -5 -53 -43 -77 -122 -77 -76 0 -111
20 -135 76 -13 32 -21 39 -43 39 -32 0 -36 -21 -14 -73 39 -95 191 -138 296
-84 54 27 80 61 87 114 11 84 -38 128 -180 164 -48 12 -99 30 -112 41 -42 33
-29 88 26 107 75 26 157 4 178 -48 11 -25 19 -31 42 -31 23 0 29 5 29 20 0 35
-28 77 -66 100 -42 27 -149 36 -202 18z"/>
<path d="M4380 4810 c-11 -11 -20 -24 -20 -30 0 -16 27 -12 34 5 7 19 50 19
66 0 18 -22 4 -48 -49 -93 -27 -23 -51 -50 -54 -62 -5 -19 -1 -20 69 -20 59 0
74 3 74 15 0 11 -13 15 -52 15 l-53 1 36 33 c46 43 69 76 69 98 0 28 -37 58
-70 58 -17 0 -39 -9 -50 -20z"/>
<path d="M842 4515 l-2 -279 -60 59 c-33 33 -60 55 -60 50 0 -13 242 -255 255
-255 5 0 -21 30 -58 68 l-67 67 -3 285 -2 285 -3 -280z"/>
<path d="M6954 4529 c-61 -14 -115 -29 -121 -32 -9 -6 85 -207 97 -207 3 0 21
29 40 64 l34 64 46 -23 c103 -52 254 -189 330 -300 49 -71 116 -220 141 -315
20 -71 23 -110 23 -240 0 -179 -18 -266 -84 -407 -100 -215 -244 -363 -459
-470 -108 -55 -124 -72 -26 -28 157 69 328 214 424 361 170 259 208 593 101
886 -78 213 -227 393 -423 510 l-67 41 30 54 c17 30 30 58 28 62 -2 4 -53 -5
-114 -20z"/>
<path d="M7580 4300 l0 -210 25 0 25 0 2 178 3 177 55 -177 c53 -171 56 -178
81 -178 25 0 28 7 58 103 18 56 43 134 56 172 l23 70 1 -172 1 -173 30 0 30 0
0 210 0 210 -43 0 -43 0 -16 -52 c-76 -245 -91 -289 -98 -277 -4 8 -29 85 -56
172 l-47 157 -44 0 -43 0 0 -210z"/>
<path d="M6070 3745 c30 -30 57 -55 59 -55 3 0 -19 25 -49 55 -30 30 -57 55
-59 55 -3 0 19 -25 49 -55z"/>
<path d="M6090 3310 l0 -210 30 0 30 0 0 84 0 84 93 4 c53 2 101 10 113 18 51
32 69 112 38 171 -23 46 -67 59 -194 59 l-110 0 0 -210z m240 140 c20 -20 27
-74 12 -96 -15 -23 -53 -34 -121 -34 l-71 0 0 75 0 75 80 0 c67 0 83 -3 100
-20z"/>
<path d="M6470 3253 c-20 -26 -20 -28 -4 -32 9 -1 21 4 26 13 11 19 49 21 66
4 20 -20 14 -27 -25 -34 -58 -10 -85 -30 -81 -62 4 -35 46 -51 88 -35 17 6 30
7 30 2 0 -5 7 -9 15 -9 12 0 15 14 15 70 0 57 -4 74 -20 90 -30 30 -83 27
-110 -7z m100 -81 c0 -18 -39 -43 -62 -40 -36 5 -28 32 12 39 19 4 38 7 43 8
4 0 7 -3 7 -7z"/>
<path d="M4052 2858 c-18 -6 -46 -26 -62 -45 -24 -27 -30 -43 -30 -81 0 -82
30 -106 181 -147 109 -29 131 -45 127 -93 -5 -53 -43 -77 -122 -77 -76 0 -111
20 -135 76 -13 32 -21 39 -43 39 -32 0 -36 -21 -14 -73 39 -95 191 -138 296
-84 54 27 80 61 87 114 11 84 -38 128 -180 164 -48 12 -99 30 -112 41 -42 33
-29 88 26 107 75 26 157 4 178 -48 11 -25 19 -31 42 -31 23 0 29 5 29 20 0 35
-28 77 -66 100 -42 27 -149 36 -202 18z"/>
<path d="M4414 2572 c-6 -4 -16 -17 -23 -29 -9 -19 -9 -23 2 -23 8 0 20 7 27
15 17 20 54 15 58 -7 2 -12 -6 -21 -22 -28 -34 -13 -33 -28 2 -32 19 -2 28 -9
30 -26 7 -44 -41 -70 -68 -37 -14 17 -40 20 -40 5 0 -21 41 -50 70 -50 17 0
39 9 50 20 26 26 27 85 3 99 -15 8 -16 12 -5 22 39 41 -35 104 -84 71z"/>
<path d="M4032 648 c-18 -6 -46 -26 -62 -45 -24 -27 -30 -43 -30 -81 0 -82 30
-106 181 -147 109 -29 131 -45 127 -93 -5 -53 -43 -77 -122 -77 -76 0 -111 20
-135 76 -13 32 -21 39 -43 39 -32 0 -36 -21 -14 -73 39 -95 191 -138 296 -84
54 27 80 61 87 114 11 84 -38 128 -180 164 -48 12 -99 30 -112 41 -42 33 -29
88 26 107 75 26 157 4 178 -48 11 -25 19 -31 42 -31 23 0 29 5 29 20 0 35 -28
77 -66 100 -42 27 -149 36 -202 18z"/>
<path d="M4380 355 c0 -8 7 -15 15 -15 8 0 15 7 15 15 0 8 -7 15 -15 15 -8 0
-15 -7 -15 -15z"/>
<path d="M4380 230 c0 -64 3 -80 15 -80 12 0 15 16 15 80 0 64 -3 80 -15 80
-12 0 -15 -16 -15 -80z"/>
</g>
</svg>
